G04 #@! TF.GenerationSoftware,KiCad,Pcbnew,(5.1.6)-1*
G04 #@! TF.CreationDate,2020-09-21T23:14:33+02:00*
G04 #@! TF.ProjectId,Brewnode_PCB,42726577-6e6f-4646-955f-5043422e6b69,1.0*
G04 #@! TF.SameCoordinates,Original*
G04 #@! TF.FileFunction,Legend,Bot*
G04 #@! TF.FilePolarity,Positive*
%FSLAX46Y46*%
G04 Gerber Fmt 4.6, Leading zero omitted, Abs format (unit mm)*
G04 Created by KiCad (PCBNEW (5.1.6)-1) date 2020-09-21 23:14:33*
%MOMM*%
%LPD*%
G01*
G04 APERTURE LIST*
%ADD10C,0.200000*%
G04 APERTURE END LIST*
D10*
X145779252Y-92140000D02*
X145256748Y-92140000D01*
X145779252Y-93560000D02*
X145256748Y-93560000D01*
X126729252Y-92140000D02*
X126206748Y-92140000D01*
X126729252Y-93560000D02*
X126206748Y-93560000D01*
X126729252Y-82488000D02*
X126206748Y-82488000D01*
X126729252Y-83908000D02*
X126206748Y-83908000D01*
X145779252Y-82488000D02*
X145256748Y-82488000D01*
X145779252Y-83908000D02*
X145256748Y-83908000D01*
X182550000Y-102754252D02*
X182550000Y-102231748D01*
X181130000Y-102754252D02*
X181130000Y-102231748D01*
X163754000Y-102772252D02*
X163754000Y-102249748D01*
X162334000Y-102772252D02*
X162334000Y-102249748D01*
X161214000Y-102763252D02*
X161214000Y-102240748D01*
X159794000Y-102763252D02*
X159794000Y-102240748D01*
X180010000Y-102763252D02*
X180010000Y-102240748D01*
X178590000Y-102763252D02*
X178590000Y-102240748D01*
X135604748Y-105752000D02*
X136127252Y-105752000D01*
X135604748Y-104332000D02*
X136127252Y-104332000D01*
X135604748Y-109562000D02*
X136127252Y-109562000D01*
X135604748Y-108142000D02*
X136127252Y-108142000D01*
X135604748Y-113372000D02*
X136127252Y-113372000D01*
X135604748Y-111952000D02*
X136127252Y-111952000D01*
X135604748Y-117182000D02*
X136127252Y-117182000D01*
X135604748Y-115762000D02*
X136127252Y-115762000D01*
X146541252Y-105348000D02*
X146018748Y-105348000D01*
X146541252Y-106768000D02*
X146018748Y-106768000D01*
X146541252Y-109158000D02*
X146018748Y-109158000D01*
X146541252Y-110578000D02*
X146018748Y-110578000D01*
X146541252Y-112968000D02*
X146018748Y-112968000D01*
X146541252Y-114388000D02*
X146018748Y-114388000D01*
X146541252Y-116778000D02*
X146018748Y-116778000D01*
X146541252Y-118198000D02*
X146018748Y-118198000D01*
X69325252Y-135574000D02*
X68802748Y-135574000D01*
X69325252Y-136994000D02*
X68802748Y-136994000D01*
X73389252Y-135574000D02*
X72866748Y-135574000D01*
X73389252Y-136994000D02*
X72866748Y-136994000D01*
X69325252Y-123406000D02*
X68802748Y-123406000D01*
X69325252Y-124826000D02*
X68802748Y-124826000D01*
X73389252Y-123382000D02*
X72866748Y-123382000D01*
X73389252Y-124802000D02*
X72866748Y-124802000D01*
X69325252Y-111190000D02*
X68802748Y-111190000D01*
X69325252Y-112610000D02*
X68802748Y-112610000D01*
X73389252Y-111190000D02*
X72866748Y-111190000D01*
X73389252Y-112610000D02*
X72866748Y-112610000D01*
X69325252Y-98490000D02*
X68802748Y-98490000D01*
X69325252Y-99910000D02*
X68802748Y-99910000D01*
X73389252Y-98490000D02*
X72866748Y-98490000D01*
X73389252Y-99910000D02*
X72866748Y-99910000D01*
X140948000Y-106622000D02*
X140948000Y-105692000D01*
X140948000Y-103462000D02*
X140948000Y-104392000D01*
X140948000Y-103462000D02*
X143108000Y-103462000D01*
X140948000Y-106622000D02*
X142408000Y-106622000D01*
X140948000Y-110432000D02*
X140948000Y-109502000D01*
X140948000Y-107272000D02*
X140948000Y-108202000D01*
X140948000Y-107272000D02*
X143108000Y-107272000D01*
X140948000Y-110432000D02*
X142408000Y-110432000D01*
X140948000Y-114242000D02*
X140948000Y-113312000D01*
X140948000Y-111082000D02*
X140948000Y-112012000D01*
X140948000Y-111082000D02*
X143108000Y-111082000D01*
X140948000Y-114242000D02*
X142408000Y-114242000D01*
X140948000Y-118052000D02*
X140948000Y-117122000D01*
X140948000Y-114892000D02*
X140948000Y-115822000D01*
X140948000Y-114892000D02*
X143108000Y-114892000D01*
X140948000Y-118052000D02*
X142408000Y-118052000D01*
X185928000Y-119910000D02*
X185928000Y-124210000D01*
X185928000Y-124210000D02*
X178378000Y-124210000D01*
X185928000Y-119910000D02*
X178378000Y-119910000D01*
X167132000Y-119656000D02*
X167132000Y-123956000D01*
X167132000Y-123956000D02*
X159582000Y-123956000D01*
X167132000Y-119656000D02*
X159582000Y-119656000D01*
X109728000Y-119148000D02*
X109728000Y-123448000D01*
X109728000Y-123448000D02*
X102178000Y-123448000D01*
X109728000Y-119148000D02*
X102178000Y-119148000D01*
X90678000Y-119148000D02*
X90678000Y-123448000D01*
X90678000Y-123448000D02*
X83128000Y-123448000D01*
X90678000Y-119148000D02*
X83128000Y-119148000D01*
X146160857Y-91722761D02*
X146494190Y-90770380D01*
X146732285Y-91722761D02*
X146732285Y-89722761D01*
X146351333Y-89722761D01*
X146256095Y-89818000D01*
X146208476Y-89913238D01*
X146160857Y-90103714D01*
X146160857Y-90389428D01*
X146208476Y-90579904D01*
X146256095Y-90675142D01*
X146351333Y-90770380D01*
X146732285Y-90770380D01*
X145827523Y-89722761D02*
X145208476Y-89722761D01*
X145541809Y-90484666D01*
X145398952Y-90484666D01*
X145303714Y-90579904D01*
X145256095Y-90675142D01*
X145208476Y-90865619D01*
X145208476Y-91341809D01*
X145256095Y-91532285D01*
X145303714Y-91627523D01*
X145398952Y-91722761D01*
X145684666Y-91722761D01*
X145779904Y-91627523D01*
X145827523Y-91532285D01*
X144589428Y-89722761D02*
X144494190Y-89722761D01*
X144398952Y-89818000D01*
X144351333Y-89913238D01*
X144303714Y-90103714D01*
X144256095Y-90484666D01*
X144256095Y-90960857D01*
X144303714Y-91341809D01*
X144351333Y-91532285D01*
X144398952Y-91627523D01*
X144494190Y-91722761D01*
X144589428Y-91722761D01*
X144684666Y-91627523D01*
X144732285Y-91532285D01*
X144779904Y-91341809D01*
X144827523Y-90960857D01*
X144827523Y-90484666D01*
X144779904Y-90103714D01*
X144732285Y-89913238D01*
X144684666Y-89818000D01*
X144589428Y-89722761D01*
X127110857Y-91722761D02*
X127444190Y-90770380D01*
X127682285Y-91722761D02*
X127682285Y-89722761D01*
X127301333Y-89722761D01*
X127206095Y-89818000D01*
X127158476Y-89913238D01*
X127110857Y-90103714D01*
X127110857Y-90389428D01*
X127158476Y-90579904D01*
X127206095Y-90675142D01*
X127301333Y-90770380D01*
X127682285Y-90770380D01*
X126729904Y-89913238D02*
X126682285Y-89818000D01*
X126587047Y-89722761D01*
X126348952Y-89722761D01*
X126253714Y-89818000D01*
X126206095Y-89913238D01*
X126158476Y-90103714D01*
X126158476Y-90294190D01*
X126206095Y-90579904D01*
X126777523Y-91722761D01*
X126158476Y-91722761D01*
X125682285Y-91722761D02*
X125491809Y-91722761D01*
X125396571Y-91627523D01*
X125348952Y-91532285D01*
X125253714Y-91246571D01*
X125206095Y-90865619D01*
X125206095Y-90103714D01*
X125253714Y-89913238D01*
X125301333Y-89818000D01*
X125396571Y-89722761D01*
X125587047Y-89722761D01*
X125682285Y-89818000D01*
X125729904Y-89913238D01*
X125777523Y-90103714D01*
X125777523Y-90579904D01*
X125729904Y-90770380D01*
X125682285Y-90865619D01*
X125587047Y-90960857D01*
X125396571Y-90960857D01*
X125301333Y-90865619D01*
X125253714Y-90770380D01*
X125206095Y-90579904D01*
X127110857Y-82070761D02*
X127444190Y-81118380D01*
X127682285Y-82070761D02*
X127682285Y-80070761D01*
X127301333Y-80070761D01*
X127206095Y-80166000D01*
X127158476Y-80261238D01*
X127110857Y-80451714D01*
X127110857Y-80737428D01*
X127158476Y-80927904D01*
X127206095Y-81023142D01*
X127301333Y-81118380D01*
X127682285Y-81118380D01*
X126729904Y-80261238D02*
X126682285Y-80166000D01*
X126587047Y-80070761D01*
X126348952Y-80070761D01*
X126253714Y-80166000D01*
X126206095Y-80261238D01*
X126158476Y-80451714D01*
X126158476Y-80642190D01*
X126206095Y-80927904D01*
X126777523Y-82070761D01*
X126158476Y-82070761D01*
X125587047Y-80927904D02*
X125682285Y-80832666D01*
X125729904Y-80737428D01*
X125777523Y-80546952D01*
X125777523Y-80451714D01*
X125729904Y-80261238D01*
X125682285Y-80166000D01*
X125587047Y-80070761D01*
X125396571Y-80070761D01*
X125301333Y-80166000D01*
X125253714Y-80261238D01*
X125206095Y-80451714D01*
X125206095Y-80546952D01*
X125253714Y-80737428D01*
X125301333Y-80832666D01*
X125396571Y-80927904D01*
X125587047Y-80927904D01*
X125682285Y-81023142D01*
X125729904Y-81118380D01*
X125777523Y-81308857D01*
X125777523Y-81689809D01*
X125729904Y-81880285D01*
X125682285Y-81975523D01*
X125587047Y-82070761D01*
X125396571Y-82070761D01*
X125301333Y-81975523D01*
X125253714Y-81880285D01*
X125206095Y-81689809D01*
X125206095Y-81308857D01*
X125253714Y-81118380D01*
X125301333Y-81023142D01*
X125396571Y-80927904D01*
X146160857Y-82070761D02*
X146494190Y-81118380D01*
X146732285Y-82070761D02*
X146732285Y-80070761D01*
X146351333Y-80070761D01*
X146256095Y-80166000D01*
X146208476Y-80261238D01*
X146160857Y-80451714D01*
X146160857Y-80737428D01*
X146208476Y-80927904D01*
X146256095Y-81023142D01*
X146351333Y-81118380D01*
X146732285Y-81118380D01*
X145779904Y-80261238D02*
X145732285Y-80166000D01*
X145637047Y-80070761D01*
X145398952Y-80070761D01*
X145303714Y-80166000D01*
X145256095Y-80261238D01*
X145208476Y-80451714D01*
X145208476Y-80642190D01*
X145256095Y-80927904D01*
X145827523Y-82070761D01*
X145208476Y-82070761D01*
X144875142Y-80070761D02*
X144208476Y-80070761D01*
X144637047Y-82070761D01*
X185022857Y-103660761D02*
X185356190Y-102708380D01*
X185594285Y-103660761D02*
X185594285Y-101660761D01*
X185213333Y-101660761D01*
X185118095Y-101756000D01*
X185070476Y-101851238D01*
X185022857Y-102041714D01*
X185022857Y-102327428D01*
X185070476Y-102517904D01*
X185118095Y-102613142D01*
X185213333Y-102708380D01*
X185594285Y-102708380D01*
X184641904Y-101851238D02*
X184594285Y-101756000D01*
X184499047Y-101660761D01*
X184260952Y-101660761D01*
X184165714Y-101756000D01*
X184118095Y-101851238D01*
X184070476Y-102041714D01*
X184070476Y-102232190D01*
X184118095Y-102517904D01*
X184689523Y-103660761D01*
X184070476Y-103660761D01*
X183213333Y-101660761D02*
X183403809Y-101660761D01*
X183499047Y-101756000D01*
X183546666Y-101851238D01*
X183641904Y-102136952D01*
X183689523Y-102517904D01*
X183689523Y-103279809D01*
X183641904Y-103470285D01*
X183594285Y-103565523D01*
X183499047Y-103660761D01*
X183308571Y-103660761D01*
X183213333Y-103565523D01*
X183165714Y-103470285D01*
X183118095Y-103279809D01*
X183118095Y-102803619D01*
X183165714Y-102613142D01*
X183213333Y-102517904D01*
X183308571Y-102422666D01*
X183499047Y-102422666D01*
X183594285Y-102517904D01*
X183641904Y-102613142D01*
X183689523Y-102803619D01*
X166226857Y-103660761D02*
X166560190Y-102708380D01*
X166798285Y-103660761D02*
X166798285Y-101660761D01*
X166417333Y-101660761D01*
X166322095Y-101756000D01*
X166274476Y-101851238D01*
X166226857Y-102041714D01*
X166226857Y-102327428D01*
X166274476Y-102517904D01*
X166322095Y-102613142D01*
X166417333Y-102708380D01*
X166798285Y-102708380D01*
X165845904Y-101851238D02*
X165798285Y-101756000D01*
X165703047Y-101660761D01*
X165464952Y-101660761D01*
X165369714Y-101756000D01*
X165322095Y-101851238D01*
X165274476Y-102041714D01*
X165274476Y-102232190D01*
X165322095Y-102517904D01*
X165893523Y-103660761D01*
X165274476Y-103660761D01*
X164369714Y-101660761D02*
X164845904Y-101660761D01*
X164893523Y-102613142D01*
X164845904Y-102517904D01*
X164750666Y-102422666D01*
X164512571Y-102422666D01*
X164417333Y-102517904D01*
X164369714Y-102613142D01*
X164322095Y-102803619D01*
X164322095Y-103279809D01*
X164369714Y-103470285D01*
X164417333Y-103565523D01*
X164512571Y-103660761D01*
X164750666Y-103660761D01*
X164845904Y-103565523D01*
X164893523Y-103470285D01*
X158606857Y-103660761D02*
X158940190Y-102708380D01*
X159178285Y-103660761D02*
X159178285Y-101660761D01*
X158797333Y-101660761D01*
X158702095Y-101756000D01*
X158654476Y-101851238D01*
X158606857Y-102041714D01*
X158606857Y-102327428D01*
X158654476Y-102517904D01*
X158702095Y-102613142D01*
X158797333Y-102708380D01*
X159178285Y-102708380D01*
X158225904Y-101851238D02*
X158178285Y-101756000D01*
X158083047Y-101660761D01*
X157844952Y-101660761D01*
X157749714Y-101756000D01*
X157702095Y-101851238D01*
X157654476Y-102041714D01*
X157654476Y-102232190D01*
X157702095Y-102517904D01*
X158273523Y-103660761D01*
X157654476Y-103660761D01*
X156797333Y-102327428D02*
X156797333Y-103660761D01*
X157035428Y-101565523D02*
X157273523Y-102994095D01*
X156654476Y-102994095D01*
X177402857Y-103660761D02*
X177736190Y-102708380D01*
X177974285Y-103660761D02*
X177974285Y-101660761D01*
X177593333Y-101660761D01*
X177498095Y-101756000D01*
X177450476Y-101851238D01*
X177402857Y-102041714D01*
X177402857Y-102327428D01*
X177450476Y-102517904D01*
X177498095Y-102613142D01*
X177593333Y-102708380D01*
X177974285Y-102708380D01*
X177021904Y-101851238D02*
X176974285Y-101756000D01*
X176879047Y-101660761D01*
X176640952Y-101660761D01*
X176545714Y-101756000D01*
X176498095Y-101851238D01*
X176450476Y-102041714D01*
X176450476Y-102232190D01*
X176498095Y-102517904D01*
X177069523Y-103660761D01*
X176450476Y-103660761D01*
X176117142Y-101660761D02*
X175498095Y-101660761D01*
X175831428Y-102422666D01*
X175688571Y-102422666D01*
X175593333Y-102517904D01*
X175545714Y-102613142D01*
X175498095Y-102803619D01*
X175498095Y-103279809D01*
X175545714Y-103470285D01*
X175593333Y-103565523D01*
X175688571Y-103660761D01*
X175974285Y-103660761D01*
X176069523Y-103565523D01*
X176117142Y-103470285D01*
X133206857Y-105946761D02*
X133540190Y-104994380D01*
X133778285Y-105946761D02*
X133778285Y-103946761D01*
X133397333Y-103946761D01*
X133302095Y-104042000D01*
X133254476Y-104137238D01*
X133206857Y-104327714D01*
X133206857Y-104613428D01*
X133254476Y-104803904D01*
X133302095Y-104899142D01*
X133397333Y-104994380D01*
X133778285Y-104994380D01*
X132825904Y-104137238D02*
X132778285Y-104042000D01*
X132683047Y-103946761D01*
X132444952Y-103946761D01*
X132349714Y-104042000D01*
X132302095Y-104137238D01*
X132254476Y-104327714D01*
X132254476Y-104518190D01*
X132302095Y-104803904D01*
X132873523Y-105946761D01*
X132254476Y-105946761D01*
X131873523Y-104137238D02*
X131825904Y-104042000D01*
X131730666Y-103946761D01*
X131492571Y-103946761D01*
X131397333Y-104042000D01*
X131349714Y-104137238D01*
X131302095Y-104327714D01*
X131302095Y-104518190D01*
X131349714Y-104803904D01*
X131921142Y-105946761D01*
X131302095Y-105946761D01*
X133206857Y-109756761D02*
X133540190Y-108804380D01*
X133778285Y-109756761D02*
X133778285Y-107756761D01*
X133397333Y-107756761D01*
X133302095Y-107852000D01*
X133254476Y-107947238D01*
X133206857Y-108137714D01*
X133206857Y-108423428D01*
X133254476Y-108613904D01*
X133302095Y-108709142D01*
X133397333Y-108804380D01*
X133778285Y-108804380D01*
X132825904Y-107947238D02*
X132778285Y-107852000D01*
X132683047Y-107756761D01*
X132444952Y-107756761D01*
X132349714Y-107852000D01*
X132302095Y-107947238D01*
X132254476Y-108137714D01*
X132254476Y-108328190D01*
X132302095Y-108613904D01*
X132873523Y-109756761D01*
X132254476Y-109756761D01*
X131302095Y-109756761D02*
X131873523Y-109756761D01*
X131587809Y-109756761D02*
X131587809Y-107756761D01*
X131683047Y-108042476D01*
X131778285Y-108232952D01*
X131873523Y-108328190D01*
X133206857Y-113566761D02*
X133540190Y-112614380D01*
X133778285Y-113566761D02*
X133778285Y-111566761D01*
X133397333Y-111566761D01*
X133302095Y-111662000D01*
X133254476Y-111757238D01*
X133206857Y-111947714D01*
X133206857Y-112233428D01*
X133254476Y-112423904D01*
X133302095Y-112519142D01*
X133397333Y-112614380D01*
X133778285Y-112614380D01*
X132825904Y-111757238D02*
X132778285Y-111662000D01*
X132683047Y-111566761D01*
X132444952Y-111566761D01*
X132349714Y-111662000D01*
X132302095Y-111757238D01*
X132254476Y-111947714D01*
X132254476Y-112138190D01*
X132302095Y-112423904D01*
X132873523Y-113566761D01*
X132254476Y-113566761D01*
X131635428Y-111566761D02*
X131540190Y-111566761D01*
X131444952Y-111662000D01*
X131397333Y-111757238D01*
X131349714Y-111947714D01*
X131302095Y-112328666D01*
X131302095Y-112804857D01*
X131349714Y-113185809D01*
X131397333Y-113376285D01*
X131444952Y-113471523D01*
X131540190Y-113566761D01*
X131635428Y-113566761D01*
X131730666Y-113471523D01*
X131778285Y-113376285D01*
X131825904Y-113185809D01*
X131873523Y-112804857D01*
X131873523Y-112328666D01*
X131825904Y-111947714D01*
X131778285Y-111757238D01*
X131730666Y-111662000D01*
X131635428Y-111566761D01*
X133206857Y-117376761D02*
X133540190Y-116424380D01*
X133778285Y-117376761D02*
X133778285Y-115376761D01*
X133397333Y-115376761D01*
X133302095Y-115472000D01*
X133254476Y-115567238D01*
X133206857Y-115757714D01*
X133206857Y-116043428D01*
X133254476Y-116233904D01*
X133302095Y-116329142D01*
X133397333Y-116424380D01*
X133778285Y-116424380D01*
X132254476Y-117376761D02*
X132825904Y-117376761D01*
X132540190Y-117376761D02*
X132540190Y-115376761D01*
X132635428Y-115662476D01*
X132730666Y-115852952D01*
X132825904Y-115948190D01*
X131778285Y-117376761D02*
X131587809Y-117376761D01*
X131492571Y-117281523D01*
X131444952Y-117186285D01*
X131349714Y-116900571D01*
X131302095Y-116519619D01*
X131302095Y-115757714D01*
X131349714Y-115567238D01*
X131397333Y-115472000D01*
X131492571Y-115376761D01*
X131683047Y-115376761D01*
X131778285Y-115472000D01*
X131825904Y-115567238D01*
X131873523Y-115757714D01*
X131873523Y-116233904D01*
X131825904Y-116424380D01*
X131778285Y-116519619D01*
X131683047Y-116614857D01*
X131492571Y-116614857D01*
X131397333Y-116519619D01*
X131349714Y-116424380D01*
X131302095Y-116233904D01*
X150224857Y-106962761D02*
X150558190Y-106010380D01*
X150796285Y-106962761D02*
X150796285Y-104962761D01*
X150415333Y-104962761D01*
X150320095Y-105058000D01*
X150272476Y-105153238D01*
X150224857Y-105343714D01*
X150224857Y-105629428D01*
X150272476Y-105819904D01*
X150320095Y-105915142D01*
X150415333Y-106010380D01*
X150796285Y-106010380D01*
X149272476Y-106962761D02*
X149843904Y-106962761D01*
X149558190Y-106962761D02*
X149558190Y-104962761D01*
X149653428Y-105248476D01*
X149748666Y-105438952D01*
X149843904Y-105534190D01*
X148701047Y-105819904D02*
X148796285Y-105724666D01*
X148843904Y-105629428D01*
X148891523Y-105438952D01*
X148891523Y-105343714D01*
X148843904Y-105153238D01*
X148796285Y-105058000D01*
X148701047Y-104962761D01*
X148510571Y-104962761D01*
X148415333Y-105058000D01*
X148367714Y-105153238D01*
X148320095Y-105343714D01*
X148320095Y-105438952D01*
X148367714Y-105629428D01*
X148415333Y-105724666D01*
X148510571Y-105819904D01*
X148701047Y-105819904D01*
X148796285Y-105915142D01*
X148843904Y-106010380D01*
X148891523Y-106200857D01*
X148891523Y-106581809D01*
X148843904Y-106772285D01*
X148796285Y-106867523D01*
X148701047Y-106962761D01*
X148510571Y-106962761D01*
X148415333Y-106867523D01*
X148367714Y-106772285D01*
X148320095Y-106581809D01*
X148320095Y-106200857D01*
X148367714Y-106010380D01*
X148415333Y-105915142D01*
X148510571Y-105819904D01*
X150224857Y-110772761D02*
X150558190Y-109820380D01*
X150796285Y-110772761D02*
X150796285Y-108772761D01*
X150415333Y-108772761D01*
X150320095Y-108868000D01*
X150272476Y-108963238D01*
X150224857Y-109153714D01*
X150224857Y-109439428D01*
X150272476Y-109629904D01*
X150320095Y-109725142D01*
X150415333Y-109820380D01*
X150796285Y-109820380D01*
X149272476Y-110772761D02*
X149843904Y-110772761D01*
X149558190Y-110772761D02*
X149558190Y-108772761D01*
X149653428Y-109058476D01*
X149748666Y-109248952D01*
X149843904Y-109344190D01*
X148939142Y-108772761D02*
X148272476Y-108772761D01*
X148701047Y-110772761D01*
X150224857Y-114582761D02*
X150558190Y-113630380D01*
X150796285Y-114582761D02*
X150796285Y-112582761D01*
X150415333Y-112582761D01*
X150320095Y-112678000D01*
X150272476Y-112773238D01*
X150224857Y-112963714D01*
X150224857Y-113249428D01*
X150272476Y-113439904D01*
X150320095Y-113535142D01*
X150415333Y-113630380D01*
X150796285Y-113630380D01*
X149272476Y-114582761D02*
X149843904Y-114582761D01*
X149558190Y-114582761D02*
X149558190Y-112582761D01*
X149653428Y-112868476D01*
X149748666Y-113058952D01*
X149843904Y-113154190D01*
X148415333Y-112582761D02*
X148605809Y-112582761D01*
X148701047Y-112678000D01*
X148748666Y-112773238D01*
X148843904Y-113058952D01*
X148891523Y-113439904D01*
X148891523Y-114201809D01*
X148843904Y-114392285D01*
X148796285Y-114487523D01*
X148701047Y-114582761D01*
X148510571Y-114582761D01*
X148415333Y-114487523D01*
X148367714Y-114392285D01*
X148320095Y-114201809D01*
X148320095Y-113725619D01*
X148367714Y-113535142D01*
X148415333Y-113439904D01*
X148510571Y-113344666D01*
X148701047Y-113344666D01*
X148796285Y-113439904D01*
X148843904Y-113535142D01*
X148891523Y-113725619D01*
X150224857Y-118392761D02*
X150558190Y-117440380D01*
X150796285Y-118392761D02*
X150796285Y-116392761D01*
X150415333Y-116392761D01*
X150320095Y-116488000D01*
X150272476Y-116583238D01*
X150224857Y-116773714D01*
X150224857Y-117059428D01*
X150272476Y-117249904D01*
X150320095Y-117345142D01*
X150415333Y-117440380D01*
X150796285Y-117440380D01*
X149272476Y-118392761D02*
X149843904Y-118392761D01*
X149558190Y-118392761D02*
X149558190Y-116392761D01*
X149653428Y-116678476D01*
X149748666Y-116868952D01*
X149843904Y-116964190D01*
X148367714Y-116392761D02*
X148843904Y-116392761D01*
X148891523Y-117345142D01*
X148843904Y-117249904D01*
X148748666Y-117154666D01*
X148510571Y-117154666D01*
X148415333Y-117249904D01*
X148367714Y-117345142D01*
X148320095Y-117535619D01*
X148320095Y-118011809D01*
X148367714Y-118202285D01*
X148415333Y-118297523D01*
X148510571Y-118392761D01*
X148748666Y-118392761D01*
X148843904Y-118297523D01*
X148891523Y-118202285D01*
X69706857Y-135156761D02*
X70040190Y-134204380D01*
X70278285Y-135156761D02*
X70278285Y-133156761D01*
X69897333Y-133156761D01*
X69802095Y-133252000D01*
X69754476Y-133347238D01*
X69706857Y-133537714D01*
X69706857Y-133823428D01*
X69754476Y-134013904D01*
X69802095Y-134109142D01*
X69897333Y-134204380D01*
X70278285Y-134204380D01*
X68754476Y-135156761D02*
X69325904Y-135156761D01*
X69040190Y-135156761D02*
X69040190Y-133156761D01*
X69135428Y-133442476D01*
X69230666Y-133632952D01*
X69325904Y-133728190D01*
X67897333Y-133823428D02*
X67897333Y-135156761D01*
X68135428Y-133061523D02*
X68373523Y-134490095D01*
X67754476Y-134490095D01*
X73770857Y-135156761D02*
X74104190Y-134204380D01*
X74342285Y-135156761D02*
X74342285Y-133156761D01*
X73961333Y-133156761D01*
X73866095Y-133252000D01*
X73818476Y-133347238D01*
X73770857Y-133537714D01*
X73770857Y-133823428D01*
X73818476Y-134013904D01*
X73866095Y-134109142D01*
X73961333Y-134204380D01*
X74342285Y-134204380D01*
X72818476Y-135156761D02*
X73389904Y-135156761D01*
X73104190Y-135156761D02*
X73104190Y-133156761D01*
X73199428Y-133442476D01*
X73294666Y-133632952D01*
X73389904Y-133728190D01*
X72485142Y-133156761D02*
X71866095Y-133156761D01*
X72199428Y-133918666D01*
X72056571Y-133918666D01*
X71961333Y-134013904D01*
X71913714Y-134109142D01*
X71866095Y-134299619D01*
X71866095Y-134775809D01*
X71913714Y-134966285D01*
X71961333Y-135061523D01*
X72056571Y-135156761D01*
X72342285Y-135156761D01*
X72437523Y-135061523D01*
X72485142Y-134966285D01*
X69706857Y-122964761D02*
X70040190Y-122012380D01*
X70278285Y-122964761D02*
X70278285Y-120964761D01*
X69897333Y-120964761D01*
X69802095Y-121060000D01*
X69754476Y-121155238D01*
X69706857Y-121345714D01*
X69706857Y-121631428D01*
X69754476Y-121821904D01*
X69802095Y-121917142D01*
X69897333Y-122012380D01*
X70278285Y-122012380D01*
X68754476Y-122964761D02*
X69325904Y-122964761D01*
X69040190Y-122964761D02*
X69040190Y-120964761D01*
X69135428Y-121250476D01*
X69230666Y-121440952D01*
X69325904Y-121536190D01*
X68373523Y-121155238D02*
X68325904Y-121060000D01*
X68230666Y-120964761D01*
X67992571Y-120964761D01*
X67897333Y-121060000D01*
X67849714Y-121155238D01*
X67802095Y-121345714D01*
X67802095Y-121536190D01*
X67849714Y-121821904D01*
X68421142Y-122964761D01*
X67802095Y-122964761D01*
X73770857Y-122964761D02*
X74104190Y-122012380D01*
X74342285Y-122964761D02*
X74342285Y-120964761D01*
X73961333Y-120964761D01*
X73866095Y-121060000D01*
X73818476Y-121155238D01*
X73770857Y-121345714D01*
X73770857Y-121631428D01*
X73818476Y-121821904D01*
X73866095Y-121917142D01*
X73961333Y-122012380D01*
X74342285Y-122012380D01*
X72818476Y-122964761D02*
X73389904Y-122964761D01*
X73104190Y-122964761D02*
X73104190Y-120964761D01*
X73199428Y-121250476D01*
X73294666Y-121440952D01*
X73389904Y-121536190D01*
X71866095Y-122964761D02*
X72437523Y-122964761D01*
X72151809Y-122964761D02*
X72151809Y-120964761D01*
X72247047Y-121250476D01*
X72342285Y-121440952D01*
X72437523Y-121536190D01*
X69706857Y-110518761D02*
X70040190Y-109566380D01*
X70278285Y-110518761D02*
X70278285Y-108518761D01*
X69897333Y-108518761D01*
X69802095Y-108614000D01*
X69754476Y-108709238D01*
X69706857Y-108899714D01*
X69706857Y-109185428D01*
X69754476Y-109375904D01*
X69802095Y-109471142D01*
X69897333Y-109566380D01*
X70278285Y-109566380D01*
X68754476Y-110518761D02*
X69325904Y-110518761D01*
X69040190Y-110518761D02*
X69040190Y-108518761D01*
X69135428Y-108804476D01*
X69230666Y-108994952D01*
X69325904Y-109090190D01*
X68135428Y-108518761D02*
X68040190Y-108518761D01*
X67944952Y-108614000D01*
X67897333Y-108709238D01*
X67849714Y-108899714D01*
X67802095Y-109280666D01*
X67802095Y-109756857D01*
X67849714Y-110137809D01*
X67897333Y-110328285D01*
X67944952Y-110423523D01*
X68040190Y-110518761D01*
X68135428Y-110518761D01*
X68230666Y-110423523D01*
X68278285Y-110328285D01*
X68325904Y-110137809D01*
X68373523Y-109756857D01*
X68373523Y-109280666D01*
X68325904Y-108899714D01*
X68278285Y-108709238D01*
X68230666Y-108614000D01*
X68135428Y-108518761D01*
X73294666Y-110518761D02*
X73628000Y-109566380D01*
X73866095Y-110518761D02*
X73866095Y-108518761D01*
X73485142Y-108518761D01*
X73389904Y-108614000D01*
X73342285Y-108709238D01*
X73294666Y-108899714D01*
X73294666Y-109185428D01*
X73342285Y-109375904D01*
X73389904Y-109471142D01*
X73485142Y-109566380D01*
X73866095Y-109566380D01*
X72818476Y-110518761D02*
X72628000Y-110518761D01*
X72532761Y-110423523D01*
X72485142Y-110328285D01*
X72389904Y-110042571D01*
X72342285Y-109661619D01*
X72342285Y-108899714D01*
X72389904Y-108709238D01*
X72437523Y-108614000D01*
X72532761Y-108518761D01*
X72723238Y-108518761D01*
X72818476Y-108614000D01*
X72866095Y-108709238D01*
X72913714Y-108899714D01*
X72913714Y-109375904D01*
X72866095Y-109566380D01*
X72818476Y-109661619D01*
X72723238Y-109756857D01*
X72532761Y-109756857D01*
X72437523Y-109661619D01*
X72389904Y-109566380D01*
X72342285Y-109375904D01*
X69230666Y-98072761D02*
X69564000Y-97120380D01*
X69802095Y-98072761D02*
X69802095Y-96072761D01*
X69421142Y-96072761D01*
X69325904Y-96168000D01*
X69278285Y-96263238D01*
X69230666Y-96453714D01*
X69230666Y-96739428D01*
X69278285Y-96929904D01*
X69325904Y-97025142D01*
X69421142Y-97120380D01*
X69802095Y-97120380D01*
X68659238Y-96929904D02*
X68754476Y-96834666D01*
X68802095Y-96739428D01*
X68849714Y-96548952D01*
X68849714Y-96453714D01*
X68802095Y-96263238D01*
X68754476Y-96168000D01*
X68659238Y-96072761D01*
X68468761Y-96072761D01*
X68373523Y-96168000D01*
X68325904Y-96263238D01*
X68278285Y-96453714D01*
X68278285Y-96548952D01*
X68325904Y-96739428D01*
X68373523Y-96834666D01*
X68468761Y-96929904D01*
X68659238Y-96929904D01*
X68754476Y-97025142D01*
X68802095Y-97120380D01*
X68849714Y-97310857D01*
X68849714Y-97691809D01*
X68802095Y-97882285D01*
X68754476Y-97977523D01*
X68659238Y-98072761D01*
X68468761Y-98072761D01*
X68373523Y-97977523D01*
X68325904Y-97882285D01*
X68278285Y-97691809D01*
X68278285Y-97310857D01*
X68325904Y-97120380D01*
X68373523Y-97025142D01*
X68468761Y-96929904D01*
X73294666Y-98072761D02*
X73628000Y-97120380D01*
X73866095Y-98072761D02*
X73866095Y-96072761D01*
X73485142Y-96072761D01*
X73389904Y-96168000D01*
X73342285Y-96263238D01*
X73294666Y-96453714D01*
X73294666Y-96739428D01*
X73342285Y-96929904D01*
X73389904Y-97025142D01*
X73485142Y-97120380D01*
X73866095Y-97120380D01*
X72961333Y-96072761D02*
X72294666Y-96072761D01*
X72723238Y-98072761D01*
X139009238Y-106137238D02*
X139104476Y-106042000D01*
X139199714Y-105851523D01*
X139342571Y-105565809D01*
X139437809Y-105470571D01*
X139533047Y-105470571D01*
X139485428Y-105946761D02*
X139580666Y-105851523D01*
X139675904Y-105661047D01*
X139723523Y-105280095D01*
X139723523Y-104613428D01*
X139675904Y-104232476D01*
X139580666Y-104042000D01*
X139485428Y-103946761D01*
X139294952Y-103946761D01*
X139199714Y-104042000D01*
X139104476Y-104232476D01*
X139056857Y-104613428D01*
X139056857Y-105280095D01*
X139104476Y-105661047D01*
X139199714Y-105851523D01*
X139294952Y-105946761D01*
X139485428Y-105946761D01*
X138485428Y-104803904D02*
X138580666Y-104708666D01*
X138628285Y-104613428D01*
X138675904Y-104422952D01*
X138675904Y-104327714D01*
X138628285Y-104137238D01*
X138580666Y-104042000D01*
X138485428Y-103946761D01*
X138294952Y-103946761D01*
X138199714Y-104042000D01*
X138152095Y-104137238D01*
X138104476Y-104327714D01*
X138104476Y-104422952D01*
X138152095Y-104613428D01*
X138199714Y-104708666D01*
X138294952Y-104803904D01*
X138485428Y-104803904D01*
X138580666Y-104899142D01*
X138628285Y-104994380D01*
X138675904Y-105184857D01*
X138675904Y-105565809D01*
X138628285Y-105756285D01*
X138580666Y-105851523D01*
X138485428Y-105946761D01*
X138294952Y-105946761D01*
X138199714Y-105851523D01*
X138152095Y-105756285D01*
X138104476Y-105565809D01*
X138104476Y-105184857D01*
X138152095Y-104994380D01*
X138199714Y-104899142D01*
X138294952Y-104803904D01*
X139009238Y-109947238D02*
X139104476Y-109852000D01*
X139199714Y-109661523D01*
X139342571Y-109375809D01*
X139437809Y-109280571D01*
X139533047Y-109280571D01*
X139485428Y-109756761D02*
X139580666Y-109661523D01*
X139675904Y-109471047D01*
X139723523Y-109090095D01*
X139723523Y-108423428D01*
X139675904Y-108042476D01*
X139580666Y-107852000D01*
X139485428Y-107756761D01*
X139294952Y-107756761D01*
X139199714Y-107852000D01*
X139104476Y-108042476D01*
X139056857Y-108423428D01*
X139056857Y-109090095D01*
X139104476Y-109471047D01*
X139199714Y-109661523D01*
X139294952Y-109756761D01*
X139485428Y-109756761D01*
X138723523Y-107756761D02*
X138056857Y-107756761D01*
X138485428Y-109756761D01*
X139009238Y-113757238D02*
X139104476Y-113662000D01*
X139199714Y-113471523D01*
X139342571Y-113185809D01*
X139437809Y-113090571D01*
X139533047Y-113090571D01*
X139485428Y-113566761D02*
X139580666Y-113471523D01*
X139675904Y-113281047D01*
X139723523Y-112900095D01*
X139723523Y-112233428D01*
X139675904Y-111852476D01*
X139580666Y-111662000D01*
X139485428Y-111566761D01*
X139294952Y-111566761D01*
X139199714Y-111662000D01*
X139104476Y-111852476D01*
X139056857Y-112233428D01*
X139056857Y-112900095D01*
X139104476Y-113281047D01*
X139199714Y-113471523D01*
X139294952Y-113566761D01*
X139485428Y-113566761D01*
X138199714Y-111566761D02*
X138390190Y-111566761D01*
X138485428Y-111662000D01*
X138533047Y-111757238D01*
X138628285Y-112042952D01*
X138675904Y-112423904D01*
X138675904Y-113185809D01*
X138628285Y-113376285D01*
X138580666Y-113471523D01*
X138485428Y-113566761D01*
X138294952Y-113566761D01*
X138199714Y-113471523D01*
X138152095Y-113376285D01*
X138104476Y-113185809D01*
X138104476Y-112709619D01*
X138152095Y-112519142D01*
X138199714Y-112423904D01*
X138294952Y-112328666D01*
X138485428Y-112328666D01*
X138580666Y-112423904D01*
X138628285Y-112519142D01*
X138675904Y-112709619D01*
X139009238Y-117567238D02*
X139104476Y-117472000D01*
X139199714Y-117281523D01*
X139342571Y-116995809D01*
X139437809Y-116900571D01*
X139533047Y-116900571D01*
X139485428Y-117376761D02*
X139580666Y-117281523D01*
X139675904Y-117091047D01*
X139723523Y-116710095D01*
X139723523Y-116043428D01*
X139675904Y-115662476D01*
X139580666Y-115472000D01*
X139485428Y-115376761D01*
X139294952Y-115376761D01*
X139199714Y-115472000D01*
X139104476Y-115662476D01*
X139056857Y-116043428D01*
X139056857Y-116710095D01*
X139104476Y-117091047D01*
X139199714Y-117281523D01*
X139294952Y-117376761D01*
X139485428Y-117376761D01*
X138152095Y-115376761D02*
X138628285Y-115376761D01*
X138675904Y-116329142D01*
X138628285Y-116233904D01*
X138533047Y-116138666D01*
X138294952Y-116138666D01*
X138199714Y-116233904D01*
X138152095Y-116329142D01*
X138104476Y-116519619D01*
X138104476Y-116995809D01*
X138152095Y-117186285D01*
X138199714Y-117281523D01*
X138294952Y-117376761D01*
X138533047Y-117376761D01*
X138628285Y-117281523D01*
X138675904Y-117186285D01*
X182070095Y-127028761D02*
X182070095Y-125028761D01*
X181832000Y-125028761D01*
X181689142Y-125124000D01*
X181593904Y-125314476D01*
X181546285Y-125504952D01*
X181498666Y-125885904D01*
X181498666Y-126171619D01*
X181546285Y-126552571D01*
X181593904Y-126743047D01*
X181689142Y-126933523D01*
X181832000Y-127028761D01*
X182070095Y-127028761D01*
X180641523Y-125028761D02*
X180832000Y-125028761D01*
X180927238Y-125124000D01*
X180974857Y-125219238D01*
X181070095Y-125504952D01*
X181117714Y-125885904D01*
X181117714Y-126647809D01*
X181070095Y-126838285D01*
X181022476Y-126933523D01*
X180927238Y-127028761D01*
X180736761Y-127028761D01*
X180641523Y-126933523D01*
X180593904Y-126838285D01*
X180546285Y-126647809D01*
X180546285Y-126171619D01*
X180593904Y-125981142D01*
X180641523Y-125885904D01*
X180736761Y-125790666D01*
X180927238Y-125790666D01*
X181022476Y-125885904D01*
X181070095Y-125981142D01*
X181117714Y-126171619D01*
X163020095Y-126774761D02*
X163020095Y-124774761D01*
X162782000Y-124774761D01*
X162639142Y-124870000D01*
X162543904Y-125060476D01*
X162496285Y-125250952D01*
X162448666Y-125631904D01*
X162448666Y-125917619D01*
X162496285Y-126298571D01*
X162543904Y-126489047D01*
X162639142Y-126679523D01*
X162782000Y-126774761D01*
X163020095Y-126774761D01*
X161543904Y-124774761D02*
X162020095Y-124774761D01*
X162067714Y-125727142D01*
X162020095Y-125631904D01*
X161924857Y-125536666D01*
X161686761Y-125536666D01*
X161591523Y-125631904D01*
X161543904Y-125727142D01*
X161496285Y-125917619D01*
X161496285Y-126393809D01*
X161543904Y-126584285D01*
X161591523Y-126679523D01*
X161686761Y-126774761D01*
X161924857Y-126774761D01*
X162020095Y-126679523D01*
X162067714Y-126584285D01*
X105870095Y-126266761D02*
X105870095Y-124266761D01*
X105632000Y-124266761D01*
X105489142Y-124362000D01*
X105393904Y-124552476D01*
X105346285Y-124742952D01*
X105298666Y-125123904D01*
X105298666Y-125409619D01*
X105346285Y-125790571D01*
X105393904Y-125981047D01*
X105489142Y-126171523D01*
X105632000Y-126266761D01*
X105870095Y-126266761D01*
X104441523Y-124933428D02*
X104441523Y-126266761D01*
X104679619Y-124171523D02*
X104917714Y-125600095D01*
X104298666Y-125600095D01*
X86566095Y-126266761D02*
X86566095Y-124266761D01*
X86328000Y-124266761D01*
X86185142Y-124362000D01*
X86089904Y-124552476D01*
X86042285Y-124742952D01*
X85994666Y-125123904D01*
X85994666Y-125409619D01*
X86042285Y-125790571D01*
X86089904Y-125981047D01*
X86185142Y-126171523D01*
X86328000Y-126266761D01*
X86566095Y-126266761D01*
X85661333Y-124266761D02*
X85042285Y-124266761D01*
X85375619Y-125028666D01*
X85232761Y-125028666D01*
X85137523Y-125123904D01*
X85089904Y-125219142D01*
X85042285Y-125409619D01*
X85042285Y-125885809D01*
X85089904Y-126076285D01*
X85137523Y-126171523D01*
X85232761Y-126266761D01*
X85518476Y-126266761D01*
X85613714Y-126171523D01*
X85661333Y-126076285D01*
X87010666Y-108550285D02*
X87058285Y-108645523D01*
X87201142Y-108740761D01*
X87296380Y-108740761D01*
X87439238Y-108645523D01*
X87534476Y-108455047D01*
X87582095Y-108264571D01*
X87629714Y-107883619D01*
X87629714Y-107597904D01*
X87582095Y-107216952D01*
X87534476Y-107026476D01*
X87439238Y-106836000D01*
X87296380Y-106740761D01*
X87201142Y-106740761D01*
X87058285Y-106836000D01*
X87010666Y-106931238D01*
X86153523Y-107407428D02*
X86153523Y-108740761D01*
X86391619Y-106645523D02*
X86629714Y-108074095D01*
X86010666Y-108074095D01*
X123332666Y-111344285D02*
X123380285Y-111439523D01*
X123523142Y-111534761D01*
X123618380Y-111534761D01*
X123761238Y-111439523D01*
X123856476Y-111249047D01*
X123904095Y-111058571D01*
X123951714Y-110677619D01*
X123951714Y-110391904D01*
X123904095Y-110010952D01*
X123856476Y-109820476D01*
X123761238Y-109630000D01*
X123618380Y-109534761D01*
X123523142Y-109534761D01*
X123380285Y-109630000D01*
X123332666Y-109725238D01*
X122380285Y-111534761D02*
X122951714Y-111534761D01*
X122666000Y-111534761D02*
X122666000Y-109534761D01*
X122761238Y-109820476D01*
X122856476Y-110010952D01*
X122951714Y-110106190D01*
M02*
