M48
INCH,TZ
T1C0.0157
T2C0.0394
T3C0.0512
T4C0.0551
%
G90
G05
T1
X31800Y-35300
X32591Y-42655
X32991Y-42255
X33491Y-41455
X34800Y-35300
X35391Y-40555
X35891Y-42655
X36591Y-39455
X38400Y-35300
X39291Y-40555
X42200Y-35300
X45991Y-40555
X46000Y-32000
X46000Y-35300
X46391Y-43855
X46391Y-44555
X46491Y-46755
X46491Y-48955
X47491Y-46955
X47491Y-49855
X48091Y-40055
X49091Y-42855
X49091Y-44155
X51491Y-40055
X52091Y-43855
X52091Y-45155
X52091Y-46755
X52591Y-42255
X53091Y-43355
X53400Y-32000
X53891Y-42255
X53891Y-45055
X53891Y-46455
X54891Y-47755
X55191Y-43855
X55391Y-47455
X56691Y-44355
X56691Y-45125
X56691Y-45855
X57191Y-49055
X57891Y-47755
X58791Y-48655
X58791Y-51055
X59091Y-40155
X61000Y-32000
X61291Y-40155
X66591Y-40155
X67600Y-45000
X68500Y-32000
X68800Y-44700
X69891Y-40755
X70491Y-36755
X70591Y-41455
X70600Y-42800
X70600Y-43900
X72000Y-41700
X72200Y-42200
X73500Y-44300
X73800Y-44700
X74791Y-41255
X74991Y-40155
X75891Y-42555
X75891Y-50200
X77500Y-42555
X78000Y-42200
X78100Y-50200
X78300Y-41900
T2
X38885Y-46073
X43610Y-46073
X27491Y-36055
X27491Y-37055
X27491Y-50642
X27491Y-51642
X68963Y-46373
X73687Y-46373
X27491Y-40920
X27491Y-41920
X28991Y-40916
X28991Y-41916
X28991Y-50638
X28991Y-51638
X28991Y-45777
X28991Y-46777
X28991Y-36055
X28991Y-37055
X27491Y-45781
X27491Y-46781
X61442Y-46373
X66166Y-46373
X31366Y-46073
X36091Y-46073
T3
X38885Y-50876
X41267Y-45305
X43629Y-50896
X68963Y-51176
X71344Y-45605
X73707Y-51196
X61442Y-51176
X63824Y-45605
X66186Y-51196
X31366Y-50876
X33748Y-45305
X36110Y-50896
T4
X40300Y-41855
X52491Y-50500
X62500Y-41855
X69300Y-41855
X39267Y-54350
X41267Y-54350
X43267Y-54350
X31748Y-54350
X33748Y-54350
X35748Y-54350
X61824Y-34034
X63824Y-34034
X65824Y-34034
X69343Y-34034
X71343Y-34034
X73343Y-34034
X46786Y-37805
X48786Y-37805
X50786Y-37805
X46786Y-34034
X48786Y-34034
X50786Y-34034
X61824Y-54326
X63824Y-54326
X65824Y-54326
X39267Y-37805
X41267Y-37805
X43267Y-37805
X31748Y-34034
X33748Y-34034
X35748Y-34034
X69344Y-37805
X71344Y-37805
X73344Y-37805
X54305Y-34034
X56305Y-34034
X58305Y-34034
X31748Y-37805
X33748Y-37805
X35748Y-37805
X54305Y-37805
X56305Y-37805
X58305Y-37805
X39267Y-34034
X41267Y-34034
X43267Y-34034
X61824Y-37805
X63824Y-37805
X65824Y-37805
X69344Y-54326
X71344Y-54326
X73344Y-54326
T0
M30
