G04 #@! TF.GenerationSoftware,KiCad,Pcbnew,(5.1.6)-1*
G04 #@! TF.CreationDate,2020-09-21T23:14:33+02:00*
G04 #@! TF.ProjectId,Brewnode_PCB,42726577-6e6f-4646-955f-5043422e6b69,1.0*
G04 #@! TF.SameCoordinates,Original*
G04 #@! TF.FileFunction,Soldermask,Bot*
G04 #@! TF.FilePolarity,Negative*
%FSLAX46Y46*%
G04 Gerber Fmt 4.6, Leading zero omitted, Abs format (unit mm)*
G04 Created by KiCad (PCBNEW (5.1.6)-1) date 2020-09-21 23:14:33*
%MOMM*%
%LPD*%
G01*
G04 APERTURE LIST*
%ADD10C,4.000000*%
%ADD11O,2.080000X3.600000*%
%ADD12R,0.900000X0.800000*%
%ADD13C,3.000000*%
%ADD14C,2.500000*%
%ADD15O,1.700000X1.700000*%
%ADD16R,1.700000X1.700000*%
%ADD17C,0.150000*%
G04 APERTURE END LIST*
D10*
X70715000Y-79896000D03*
X196189524Y-144285000D03*
X70715000Y-144285000D03*
X196191000Y-79896000D03*
D11*
X186295000Y-137987200D03*
X181215000Y-137987200D03*
G36*
G01*
X175095000Y-139537201D02*
X175095000Y-136437199D01*
G75*
G02*
X175344999Y-136187200I249999J0D01*
G01*
X176925001Y-136187200D01*
G75*
G02*
X177175000Y-136437199I0J-249999D01*
G01*
X177175000Y-139537201D01*
G75*
G02*
X176925001Y-139787200I-249999J0D01*
G01*
X175344999Y-139787200D01*
G75*
G02*
X175095000Y-139537201I0J249999D01*
G01*
G37*
X167192840Y-137987200D03*
X162112840Y-137987200D03*
G36*
G01*
X155992840Y-139537201D02*
X155992840Y-136437199D01*
G75*
G02*
X156242839Y-136187200I249999J0D01*
G01*
X157822841Y-136187200D01*
G75*
G02*
X158072840Y-136437199I0J-249999D01*
G01*
X158072840Y-139537201D01*
G75*
G02*
X157822841Y-139787200I-249999J0D01*
G01*
X156242839Y-139787200D01*
G75*
G02*
X155992840Y-139537201I0J249999D01*
G01*
G37*
G36*
G01*
X145068000Y-92399999D02*
X145068000Y-93300001D01*
G75*
G02*
X144818001Y-93550000I-249999J0D01*
G01*
X144167999Y-93550000D01*
G75*
G02*
X143918000Y-93300001I0J249999D01*
G01*
X143918000Y-92399999D01*
G75*
G02*
X144167999Y-92150000I249999J0D01*
G01*
X144818001Y-92150000D01*
G75*
G02*
X145068000Y-92399999I0J-249999D01*
G01*
G37*
G36*
G01*
X147118000Y-92399999D02*
X147118000Y-93300001D01*
G75*
G02*
X146868001Y-93550000I-249999J0D01*
G01*
X146217999Y-93550000D01*
G75*
G02*
X145968000Y-93300001I0J249999D01*
G01*
X145968000Y-92399999D01*
G75*
G02*
X146217999Y-92150000I249999J0D01*
G01*
X146868001Y-92150000D01*
G75*
G02*
X147118000Y-92399999I0J-249999D01*
G01*
G37*
G36*
G01*
X126018000Y-92399999D02*
X126018000Y-93300001D01*
G75*
G02*
X125768001Y-93550000I-249999J0D01*
G01*
X125117999Y-93550000D01*
G75*
G02*
X124868000Y-93300001I0J249999D01*
G01*
X124868000Y-92399999D01*
G75*
G02*
X125117999Y-92150000I249999J0D01*
G01*
X125768001Y-92150000D01*
G75*
G02*
X126018000Y-92399999I0J-249999D01*
G01*
G37*
G36*
G01*
X128068000Y-92399999D02*
X128068000Y-93300001D01*
G75*
G02*
X127818001Y-93550000I-249999J0D01*
G01*
X127167999Y-93550000D01*
G75*
G02*
X126918000Y-93300001I0J249999D01*
G01*
X126918000Y-92399999D01*
G75*
G02*
X127167999Y-92150000I249999J0D01*
G01*
X127818001Y-92150000D01*
G75*
G02*
X128068000Y-92399999I0J-249999D01*
G01*
G37*
G36*
G01*
X126018000Y-82747999D02*
X126018000Y-83648001D01*
G75*
G02*
X125768001Y-83898000I-249999J0D01*
G01*
X125117999Y-83898000D01*
G75*
G02*
X124868000Y-83648001I0J249999D01*
G01*
X124868000Y-82747999D01*
G75*
G02*
X125117999Y-82498000I249999J0D01*
G01*
X125768001Y-82498000D01*
G75*
G02*
X126018000Y-82747999I0J-249999D01*
G01*
G37*
G36*
G01*
X128068000Y-82747999D02*
X128068000Y-83648001D01*
G75*
G02*
X127818001Y-83898000I-249999J0D01*
G01*
X127167999Y-83898000D01*
G75*
G02*
X126918000Y-83648001I0J249999D01*
G01*
X126918000Y-82747999D01*
G75*
G02*
X127167999Y-82498000I249999J0D01*
G01*
X127818001Y-82498000D01*
G75*
G02*
X128068000Y-82747999I0J-249999D01*
G01*
G37*
G36*
G01*
X145068000Y-82747999D02*
X145068000Y-83648001D01*
G75*
G02*
X144818001Y-83898000I-249999J0D01*
G01*
X144167999Y-83898000D01*
G75*
G02*
X143918000Y-83648001I0J249999D01*
G01*
X143918000Y-82747999D01*
G75*
G02*
X144167999Y-82498000I249999J0D01*
G01*
X144818001Y-82498000D01*
G75*
G02*
X145068000Y-82747999I0J-249999D01*
G01*
G37*
G36*
G01*
X147118000Y-82747999D02*
X147118000Y-83648001D01*
G75*
G02*
X146868001Y-83898000I-249999J0D01*
G01*
X146217999Y-83898000D01*
G75*
G02*
X145968000Y-83648001I0J249999D01*
G01*
X145968000Y-82747999D01*
G75*
G02*
X146217999Y-82498000I249999J0D01*
G01*
X146868001Y-82498000D01*
G75*
G02*
X147118000Y-82747999I0J-249999D01*
G01*
G37*
G36*
G01*
X182290001Y-102043000D02*
X181389999Y-102043000D01*
G75*
G02*
X181140000Y-101793001I0J249999D01*
G01*
X181140000Y-101142999D01*
G75*
G02*
X181389999Y-100893000I249999J0D01*
G01*
X182290001Y-100893000D01*
G75*
G02*
X182540000Y-101142999I0J-249999D01*
G01*
X182540000Y-101793001D01*
G75*
G02*
X182290001Y-102043000I-249999J0D01*
G01*
G37*
G36*
G01*
X182290001Y-104093000D02*
X181389999Y-104093000D01*
G75*
G02*
X181140000Y-103843001I0J249999D01*
G01*
X181140000Y-103192999D01*
G75*
G02*
X181389999Y-102943000I249999J0D01*
G01*
X182290001Y-102943000D01*
G75*
G02*
X182540000Y-103192999I0J-249999D01*
G01*
X182540000Y-103843001D01*
G75*
G02*
X182290001Y-104093000I-249999J0D01*
G01*
G37*
G36*
G01*
X163494001Y-102061000D02*
X162593999Y-102061000D01*
G75*
G02*
X162344000Y-101811001I0J249999D01*
G01*
X162344000Y-101160999D01*
G75*
G02*
X162593999Y-100911000I249999J0D01*
G01*
X163494001Y-100911000D01*
G75*
G02*
X163744000Y-101160999I0J-249999D01*
G01*
X163744000Y-101811001D01*
G75*
G02*
X163494001Y-102061000I-249999J0D01*
G01*
G37*
G36*
G01*
X163494001Y-104111000D02*
X162593999Y-104111000D01*
G75*
G02*
X162344000Y-103861001I0J249999D01*
G01*
X162344000Y-103210999D01*
G75*
G02*
X162593999Y-102961000I249999J0D01*
G01*
X163494001Y-102961000D01*
G75*
G02*
X163744000Y-103210999I0J-249999D01*
G01*
X163744000Y-103861001D01*
G75*
G02*
X163494001Y-104111000I-249999J0D01*
G01*
G37*
G36*
G01*
X160954001Y-102052000D02*
X160053999Y-102052000D01*
G75*
G02*
X159804000Y-101802001I0J249999D01*
G01*
X159804000Y-101151999D01*
G75*
G02*
X160053999Y-100902000I249999J0D01*
G01*
X160954001Y-100902000D01*
G75*
G02*
X161204000Y-101151999I0J-249999D01*
G01*
X161204000Y-101802001D01*
G75*
G02*
X160954001Y-102052000I-249999J0D01*
G01*
G37*
G36*
G01*
X160954001Y-104102000D02*
X160053999Y-104102000D01*
G75*
G02*
X159804000Y-103852001I0J249999D01*
G01*
X159804000Y-103201999D01*
G75*
G02*
X160053999Y-102952000I249999J0D01*
G01*
X160954001Y-102952000D01*
G75*
G02*
X161204000Y-103201999I0J-249999D01*
G01*
X161204000Y-103852001D01*
G75*
G02*
X160954001Y-104102000I-249999J0D01*
G01*
G37*
G36*
G01*
X179750001Y-102052000D02*
X178849999Y-102052000D01*
G75*
G02*
X178600000Y-101802001I0J249999D01*
G01*
X178600000Y-101151999D01*
G75*
G02*
X178849999Y-100902000I249999J0D01*
G01*
X179750001Y-100902000D01*
G75*
G02*
X180000000Y-101151999I0J-249999D01*
G01*
X180000000Y-101802001D01*
G75*
G02*
X179750001Y-102052000I-249999J0D01*
G01*
G37*
G36*
G01*
X179750001Y-104102000D02*
X178849999Y-104102000D01*
G75*
G02*
X178600000Y-103852001I0J249999D01*
G01*
X178600000Y-103201999D01*
G75*
G02*
X178849999Y-102952000I249999J0D01*
G01*
X179750001Y-102952000D01*
G75*
G02*
X180000000Y-103201999I0J-249999D01*
G01*
X180000000Y-103852001D01*
G75*
G02*
X179750001Y-104102000I-249999J0D01*
G01*
G37*
G36*
G01*
X136316000Y-105492001D02*
X136316000Y-104591999D01*
G75*
G02*
X136565999Y-104342000I249999J0D01*
G01*
X137216001Y-104342000D01*
G75*
G02*
X137466000Y-104591999I0J-249999D01*
G01*
X137466000Y-105492001D01*
G75*
G02*
X137216001Y-105742000I-249999J0D01*
G01*
X136565999Y-105742000D01*
G75*
G02*
X136316000Y-105492001I0J249999D01*
G01*
G37*
G36*
G01*
X134266000Y-105492001D02*
X134266000Y-104591999D01*
G75*
G02*
X134515999Y-104342000I249999J0D01*
G01*
X135166001Y-104342000D01*
G75*
G02*
X135416000Y-104591999I0J-249999D01*
G01*
X135416000Y-105492001D01*
G75*
G02*
X135166001Y-105742000I-249999J0D01*
G01*
X134515999Y-105742000D01*
G75*
G02*
X134266000Y-105492001I0J249999D01*
G01*
G37*
G36*
G01*
X136316000Y-109302001D02*
X136316000Y-108401999D01*
G75*
G02*
X136565999Y-108152000I249999J0D01*
G01*
X137216001Y-108152000D01*
G75*
G02*
X137466000Y-108401999I0J-249999D01*
G01*
X137466000Y-109302001D01*
G75*
G02*
X137216001Y-109552000I-249999J0D01*
G01*
X136565999Y-109552000D01*
G75*
G02*
X136316000Y-109302001I0J249999D01*
G01*
G37*
G36*
G01*
X134266000Y-109302001D02*
X134266000Y-108401999D01*
G75*
G02*
X134515999Y-108152000I249999J0D01*
G01*
X135166001Y-108152000D01*
G75*
G02*
X135416000Y-108401999I0J-249999D01*
G01*
X135416000Y-109302001D01*
G75*
G02*
X135166001Y-109552000I-249999J0D01*
G01*
X134515999Y-109552000D01*
G75*
G02*
X134266000Y-109302001I0J249999D01*
G01*
G37*
G36*
G01*
X136316000Y-113112001D02*
X136316000Y-112211999D01*
G75*
G02*
X136565999Y-111962000I249999J0D01*
G01*
X137216001Y-111962000D01*
G75*
G02*
X137466000Y-112211999I0J-249999D01*
G01*
X137466000Y-113112001D01*
G75*
G02*
X137216001Y-113362000I-249999J0D01*
G01*
X136565999Y-113362000D01*
G75*
G02*
X136316000Y-113112001I0J249999D01*
G01*
G37*
G36*
G01*
X134266000Y-113112001D02*
X134266000Y-112211999D01*
G75*
G02*
X134515999Y-111962000I249999J0D01*
G01*
X135166001Y-111962000D01*
G75*
G02*
X135416000Y-112211999I0J-249999D01*
G01*
X135416000Y-113112001D01*
G75*
G02*
X135166001Y-113362000I-249999J0D01*
G01*
X134515999Y-113362000D01*
G75*
G02*
X134266000Y-113112001I0J249999D01*
G01*
G37*
G36*
G01*
X136316000Y-116922001D02*
X136316000Y-116021999D01*
G75*
G02*
X136565999Y-115772000I249999J0D01*
G01*
X137216001Y-115772000D01*
G75*
G02*
X137466000Y-116021999I0J-249999D01*
G01*
X137466000Y-116922001D01*
G75*
G02*
X137216001Y-117172000I-249999J0D01*
G01*
X136565999Y-117172000D01*
G75*
G02*
X136316000Y-116922001I0J249999D01*
G01*
G37*
G36*
G01*
X134266000Y-116922001D02*
X134266000Y-116021999D01*
G75*
G02*
X134515999Y-115772000I249999J0D01*
G01*
X135166001Y-115772000D01*
G75*
G02*
X135416000Y-116021999I0J-249999D01*
G01*
X135416000Y-116922001D01*
G75*
G02*
X135166001Y-117172000I-249999J0D01*
G01*
X134515999Y-117172000D01*
G75*
G02*
X134266000Y-116922001I0J249999D01*
G01*
G37*
G36*
G01*
X145830000Y-105607999D02*
X145830000Y-106508001D01*
G75*
G02*
X145580001Y-106758000I-249999J0D01*
G01*
X144929999Y-106758000D01*
G75*
G02*
X144680000Y-106508001I0J249999D01*
G01*
X144680000Y-105607999D01*
G75*
G02*
X144929999Y-105358000I249999J0D01*
G01*
X145580001Y-105358000D01*
G75*
G02*
X145830000Y-105607999I0J-249999D01*
G01*
G37*
G36*
G01*
X147880000Y-105607999D02*
X147880000Y-106508001D01*
G75*
G02*
X147630001Y-106758000I-249999J0D01*
G01*
X146979999Y-106758000D01*
G75*
G02*
X146730000Y-106508001I0J249999D01*
G01*
X146730000Y-105607999D01*
G75*
G02*
X146979999Y-105358000I249999J0D01*
G01*
X147630001Y-105358000D01*
G75*
G02*
X147880000Y-105607999I0J-249999D01*
G01*
G37*
G36*
G01*
X145830000Y-109417999D02*
X145830000Y-110318001D01*
G75*
G02*
X145580001Y-110568000I-249999J0D01*
G01*
X144929999Y-110568000D01*
G75*
G02*
X144680000Y-110318001I0J249999D01*
G01*
X144680000Y-109417999D01*
G75*
G02*
X144929999Y-109168000I249999J0D01*
G01*
X145580001Y-109168000D01*
G75*
G02*
X145830000Y-109417999I0J-249999D01*
G01*
G37*
G36*
G01*
X147880000Y-109417999D02*
X147880000Y-110318001D01*
G75*
G02*
X147630001Y-110568000I-249999J0D01*
G01*
X146979999Y-110568000D01*
G75*
G02*
X146730000Y-110318001I0J249999D01*
G01*
X146730000Y-109417999D01*
G75*
G02*
X146979999Y-109168000I249999J0D01*
G01*
X147630001Y-109168000D01*
G75*
G02*
X147880000Y-109417999I0J-249999D01*
G01*
G37*
G36*
G01*
X145830000Y-113227999D02*
X145830000Y-114128001D01*
G75*
G02*
X145580001Y-114378000I-249999J0D01*
G01*
X144929999Y-114378000D01*
G75*
G02*
X144680000Y-114128001I0J249999D01*
G01*
X144680000Y-113227999D01*
G75*
G02*
X144929999Y-112978000I249999J0D01*
G01*
X145580001Y-112978000D01*
G75*
G02*
X145830000Y-113227999I0J-249999D01*
G01*
G37*
G36*
G01*
X147880000Y-113227999D02*
X147880000Y-114128001D01*
G75*
G02*
X147630001Y-114378000I-249999J0D01*
G01*
X146979999Y-114378000D01*
G75*
G02*
X146730000Y-114128001I0J249999D01*
G01*
X146730000Y-113227999D01*
G75*
G02*
X146979999Y-112978000I249999J0D01*
G01*
X147630001Y-112978000D01*
G75*
G02*
X147880000Y-113227999I0J-249999D01*
G01*
G37*
G36*
G01*
X145830000Y-117037999D02*
X145830000Y-117938001D01*
G75*
G02*
X145580001Y-118188000I-249999J0D01*
G01*
X144929999Y-118188000D01*
G75*
G02*
X144680000Y-117938001I0J249999D01*
G01*
X144680000Y-117037999D01*
G75*
G02*
X144929999Y-116788000I249999J0D01*
G01*
X145580001Y-116788000D01*
G75*
G02*
X145830000Y-117037999I0J-249999D01*
G01*
G37*
G36*
G01*
X147880000Y-117037999D02*
X147880000Y-117938001D01*
G75*
G02*
X147630001Y-118188000I-249999J0D01*
G01*
X146979999Y-118188000D01*
G75*
G02*
X146730000Y-117938001I0J249999D01*
G01*
X146730000Y-117037999D01*
G75*
G02*
X146979999Y-116788000I249999J0D01*
G01*
X147630001Y-116788000D01*
G75*
G02*
X147880000Y-117037999I0J-249999D01*
G01*
G37*
G36*
G01*
X68614000Y-135833999D02*
X68614000Y-136734001D01*
G75*
G02*
X68364001Y-136984000I-249999J0D01*
G01*
X67713999Y-136984000D01*
G75*
G02*
X67464000Y-136734001I0J249999D01*
G01*
X67464000Y-135833999D01*
G75*
G02*
X67713999Y-135584000I249999J0D01*
G01*
X68364001Y-135584000D01*
G75*
G02*
X68614000Y-135833999I0J-249999D01*
G01*
G37*
G36*
G01*
X70664000Y-135833999D02*
X70664000Y-136734001D01*
G75*
G02*
X70414001Y-136984000I-249999J0D01*
G01*
X69763999Y-136984000D01*
G75*
G02*
X69514000Y-136734001I0J249999D01*
G01*
X69514000Y-135833999D01*
G75*
G02*
X69763999Y-135584000I249999J0D01*
G01*
X70414001Y-135584000D01*
G75*
G02*
X70664000Y-135833999I0J-249999D01*
G01*
G37*
G36*
G01*
X72678000Y-135833999D02*
X72678000Y-136734001D01*
G75*
G02*
X72428001Y-136984000I-249999J0D01*
G01*
X71777999Y-136984000D01*
G75*
G02*
X71528000Y-136734001I0J249999D01*
G01*
X71528000Y-135833999D01*
G75*
G02*
X71777999Y-135584000I249999J0D01*
G01*
X72428001Y-135584000D01*
G75*
G02*
X72678000Y-135833999I0J-249999D01*
G01*
G37*
G36*
G01*
X74728000Y-135833999D02*
X74728000Y-136734001D01*
G75*
G02*
X74478001Y-136984000I-249999J0D01*
G01*
X73827999Y-136984000D01*
G75*
G02*
X73578000Y-136734001I0J249999D01*
G01*
X73578000Y-135833999D01*
G75*
G02*
X73827999Y-135584000I249999J0D01*
G01*
X74478001Y-135584000D01*
G75*
G02*
X74728000Y-135833999I0J-249999D01*
G01*
G37*
G36*
G01*
X68614000Y-123665999D02*
X68614000Y-124566001D01*
G75*
G02*
X68364001Y-124816000I-249999J0D01*
G01*
X67713999Y-124816000D01*
G75*
G02*
X67464000Y-124566001I0J249999D01*
G01*
X67464000Y-123665999D01*
G75*
G02*
X67713999Y-123416000I249999J0D01*
G01*
X68364001Y-123416000D01*
G75*
G02*
X68614000Y-123665999I0J-249999D01*
G01*
G37*
G36*
G01*
X70664000Y-123665999D02*
X70664000Y-124566001D01*
G75*
G02*
X70414001Y-124816000I-249999J0D01*
G01*
X69763999Y-124816000D01*
G75*
G02*
X69514000Y-124566001I0J249999D01*
G01*
X69514000Y-123665999D01*
G75*
G02*
X69763999Y-123416000I249999J0D01*
G01*
X70414001Y-123416000D01*
G75*
G02*
X70664000Y-123665999I0J-249999D01*
G01*
G37*
G36*
G01*
X72678000Y-123641999D02*
X72678000Y-124542001D01*
G75*
G02*
X72428001Y-124792000I-249999J0D01*
G01*
X71777999Y-124792000D01*
G75*
G02*
X71528000Y-124542001I0J249999D01*
G01*
X71528000Y-123641999D01*
G75*
G02*
X71777999Y-123392000I249999J0D01*
G01*
X72428001Y-123392000D01*
G75*
G02*
X72678000Y-123641999I0J-249999D01*
G01*
G37*
G36*
G01*
X74728000Y-123641999D02*
X74728000Y-124542001D01*
G75*
G02*
X74478001Y-124792000I-249999J0D01*
G01*
X73827999Y-124792000D01*
G75*
G02*
X73578000Y-124542001I0J249999D01*
G01*
X73578000Y-123641999D01*
G75*
G02*
X73827999Y-123392000I249999J0D01*
G01*
X74478001Y-123392000D01*
G75*
G02*
X74728000Y-123641999I0J-249999D01*
G01*
G37*
G36*
G01*
X68614000Y-111449999D02*
X68614000Y-112350001D01*
G75*
G02*
X68364001Y-112600000I-249999J0D01*
G01*
X67713999Y-112600000D01*
G75*
G02*
X67464000Y-112350001I0J249999D01*
G01*
X67464000Y-111449999D01*
G75*
G02*
X67713999Y-111200000I249999J0D01*
G01*
X68364001Y-111200000D01*
G75*
G02*
X68614000Y-111449999I0J-249999D01*
G01*
G37*
G36*
G01*
X70664000Y-111449999D02*
X70664000Y-112350001D01*
G75*
G02*
X70414001Y-112600000I-249999J0D01*
G01*
X69763999Y-112600000D01*
G75*
G02*
X69514000Y-112350001I0J249999D01*
G01*
X69514000Y-111449999D01*
G75*
G02*
X69763999Y-111200000I249999J0D01*
G01*
X70414001Y-111200000D01*
G75*
G02*
X70664000Y-111449999I0J-249999D01*
G01*
G37*
G36*
G01*
X72678000Y-111449999D02*
X72678000Y-112350001D01*
G75*
G02*
X72428001Y-112600000I-249999J0D01*
G01*
X71777999Y-112600000D01*
G75*
G02*
X71528000Y-112350001I0J249999D01*
G01*
X71528000Y-111449999D01*
G75*
G02*
X71777999Y-111200000I249999J0D01*
G01*
X72428001Y-111200000D01*
G75*
G02*
X72678000Y-111449999I0J-249999D01*
G01*
G37*
G36*
G01*
X74728000Y-111449999D02*
X74728000Y-112350001D01*
G75*
G02*
X74478001Y-112600000I-249999J0D01*
G01*
X73827999Y-112600000D01*
G75*
G02*
X73578000Y-112350001I0J249999D01*
G01*
X73578000Y-111449999D01*
G75*
G02*
X73827999Y-111200000I249999J0D01*
G01*
X74478001Y-111200000D01*
G75*
G02*
X74728000Y-111449999I0J-249999D01*
G01*
G37*
G36*
G01*
X68614000Y-98749999D02*
X68614000Y-99650001D01*
G75*
G02*
X68364001Y-99900000I-249999J0D01*
G01*
X67713999Y-99900000D01*
G75*
G02*
X67464000Y-99650001I0J249999D01*
G01*
X67464000Y-98749999D01*
G75*
G02*
X67713999Y-98500000I249999J0D01*
G01*
X68364001Y-98500000D01*
G75*
G02*
X68614000Y-98749999I0J-249999D01*
G01*
G37*
G36*
G01*
X70664000Y-98749999D02*
X70664000Y-99650001D01*
G75*
G02*
X70414001Y-99900000I-249999J0D01*
G01*
X69763999Y-99900000D01*
G75*
G02*
X69514000Y-99650001I0J249999D01*
G01*
X69514000Y-98749999D01*
G75*
G02*
X69763999Y-98500000I249999J0D01*
G01*
X70414001Y-98500000D01*
G75*
G02*
X70664000Y-98749999I0J-249999D01*
G01*
G37*
G36*
G01*
X72678000Y-98749999D02*
X72678000Y-99650001D01*
G75*
G02*
X72428001Y-99900000I-249999J0D01*
G01*
X71777999Y-99900000D01*
G75*
G02*
X71528000Y-99650001I0J249999D01*
G01*
X71528000Y-98749999D01*
G75*
G02*
X71777999Y-98500000I249999J0D01*
G01*
X72428001Y-98500000D01*
G75*
G02*
X72678000Y-98749999I0J-249999D01*
G01*
G37*
G36*
G01*
X74728000Y-98749999D02*
X74728000Y-99650001D01*
G75*
G02*
X74478001Y-99900000I-249999J0D01*
G01*
X73827999Y-99900000D01*
G75*
G02*
X73578000Y-99650001I0J249999D01*
G01*
X73578000Y-98749999D01*
G75*
G02*
X73827999Y-98500000I249999J0D01*
G01*
X74478001Y-98500000D01*
G75*
G02*
X74728000Y-98749999I0J-249999D01*
G01*
G37*
D12*
X140708000Y-105042000D03*
X142708000Y-105992000D03*
X142708000Y-104092000D03*
X140708000Y-108852000D03*
X142708000Y-109802000D03*
X142708000Y-107902000D03*
X140708000Y-112662000D03*
X142708000Y-113612000D03*
X142708000Y-111712000D03*
X140708000Y-116472000D03*
X142708000Y-117422000D03*
X142708000Y-115522000D03*
D13*
X181215000Y-115837000D03*
D14*
X187165000Y-117787000D03*
D13*
X187215000Y-130037000D03*
X175165000Y-129987000D03*
D14*
X175165000Y-117787000D03*
D13*
X162112840Y-115837000D03*
D14*
X168062840Y-117787000D03*
D13*
X168112840Y-130037000D03*
X156062840Y-129987000D03*
D14*
X156062840Y-117787000D03*
D13*
X104818360Y-115075000D03*
D14*
X110768360Y-117025000D03*
D13*
X110818360Y-129275000D03*
X98768360Y-129225000D03*
D14*
X98768360Y-117025000D03*
D13*
X85720200Y-115075000D03*
D14*
X91670200Y-117025000D03*
D13*
X91720200Y-129275000D03*
X79670200Y-129225000D03*
D14*
X79670200Y-117025000D03*
D15*
X69826000Y-128631666D03*
D16*
X69826000Y-131171666D03*
D15*
X73636000Y-131161666D03*
D16*
X73636000Y-128621666D03*
D15*
X69826000Y-116284444D03*
D16*
X69826000Y-118824444D03*
D15*
X73636000Y-118814444D03*
D16*
X73636000Y-116274444D03*
D15*
X69826000Y-103937222D03*
D16*
X69826000Y-106477222D03*
D15*
X73636000Y-106467222D03*
D16*
X73636000Y-103927222D03*
D15*
X69826000Y-91580000D03*
D16*
X69826000Y-94120000D03*
D15*
X73636000Y-94120000D03*
D16*
X73636000Y-91580000D03*
D11*
X176135000Y-96025000D03*
X181215000Y-96025000D03*
G36*
G01*
X187335000Y-94474999D02*
X187335000Y-97575001D01*
G75*
G02*
X187085001Y-97825000I-249999J0D01*
G01*
X185504999Y-97825000D01*
G75*
G02*
X185255000Y-97575001I0J249999D01*
G01*
X185255000Y-94474999D01*
G75*
G02*
X185504999Y-94225000I249999J0D01*
G01*
X187085001Y-94225000D01*
G75*
G02*
X187335000Y-94474999I0J-249999D01*
G01*
G37*
X157032840Y-96025000D03*
X162112840Y-96025000D03*
G36*
G01*
X168232840Y-94474999D02*
X168232840Y-97575001D01*
G75*
G02*
X167982841Y-97825000I-249999J0D01*
G01*
X166402839Y-97825000D01*
G75*
G02*
X166152840Y-97575001I0J249999D01*
G01*
X166152840Y-94474999D01*
G75*
G02*
X166402839Y-94225000I249999J0D01*
G01*
X167982841Y-94225000D01*
G75*
G02*
X168232840Y-94474999I0J-249999D01*
G01*
G37*
X157032840Y-86445200D03*
X162112840Y-86445200D03*
G36*
G01*
X168232840Y-84895199D02*
X168232840Y-87995201D01*
G75*
G02*
X167982841Y-88245200I-249999J0D01*
G01*
X166402839Y-88245200D01*
G75*
G02*
X166152840Y-87995201I0J249999D01*
G01*
X166152840Y-84895199D01*
G75*
G02*
X166402839Y-84645200I249999J0D01*
G01*
X167982841Y-84645200D01*
G75*
G02*
X168232840Y-84895199I0J-249999D01*
G01*
G37*
X176131000Y-86445200D03*
X181211000Y-86445200D03*
G36*
G01*
X187331000Y-84895199D02*
X187331000Y-87995201D01*
G75*
G02*
X187081001Y-88245200I-249999J0D01*
G01*
X185500999Y-88245200D01*
G75*
G02*
X185251000Y-87995201I0J249999D01*
G01*
X185251000Y-84895199D01*
G75*
G02*
X185500999Y-84645200I249999J0D01*
G01*
X187081001Y-84645200D01*
G75*
G02*
X187331000Y-84895199I0J-249999D01*
G01*
G37*
X99738360Y-96025000D03*
X104818360Y-96025000D03*
G36*
G01*
X110938360Y-94474999D02*
X110938360Y-97575001D01*
G75*
G02*
X110688361Y-97825000I-249999J0D01*
G01*
X109108359Y-97825000D01*
G75*
G02*
X108858360Y-97575001I0J249999D01*
G01*
X108858360Y-94474999D01*
G75*
G02*
X109108359Y-94225000I249999J0D01*
G01*
X110688361Y-94225000D01*
G75*
G02*
X110938360Y-94474999I0J-249999D01*
G01*
G37*
X80640200Y-96025000D03*
X85720200Y-96025000D03*
G36*
G01*
X91840200Y-94474999D02*
X91840200Y-97575001D01*
G75*
G02*
X91590201Y-97825000I-249999J0D01*
G01*
X90010199Y-97825000D01*
G75*
G02*
X89760200Y-97575001I0J249999D01*
G01*
X89760200Y-94474999D01*
G75*
G02*
X90010199Y-94225000I249999J0D01*
G01*
X91590201Y-94225000D01*
G75*
G02*
X91840200Y-94474999I0J-249999D01*
G01*
G37*
X80640200Y-86445200D03*
X85720200Y-86445200D03*
G36*
G01*
X91840200Y-84895199D02*
X91840200Y-87995201D01*
G75*
G02*
X91590201Y-88245200I-249999J0D01*
G01*
X90010199Y-88245200D01*
G75*
G02*
X89760200Y-87995201I0J249999D01*
G01*
X89760200Y-84895199D01*
G75*
G02*
X90010199Y-84645200I249999J0D01*
G01*
X91590201Y-84645200D01*
G75*
G02*
X91840200Y-84895199I0J-249999D01*
G01*
G37*
X99738360Y-86445200D03*
X104818360Y-86445200D03*
G36*
G01*
X110938360Y-84895199D02*
X110938360Y-87995201D01*
G75*
G02*
X110688361Y-88245200I-249999J0D01*
G01*
X109108359Y-88245200D01*
G75*
G02*
X108858360Y-87995201I0J249999D01*
G01*
X108858360Y-84895199D01*
G75*
G02*
X109108359Y-84645200I249999J0D01*
G01*
X110688361Y-84645200D01*
G75*
G02*
X110938360Y-84895199I0J-249999D01*
G01*
G37*
X109898360Y-138049200D03*
X104818360Y-138049200D03*
G36*
G01*
X98698360Y-139599201D02*
X98698360Y-136499199D01*
G75*
G02*
X98948359Y-136249200I249999J0D01*
G01*
X100528361Y-136249200D01*
G75*
G02*
X100778360Y-136499199I0J-249999D01*
G01*
X100778360Y-139599201D01*
G75*
G02*
X100528361Y-139849200I-249999J0D01*
G01*
X98948359Y-139849200D01*
G75*
G02*
X98698360Y-139599201I0J249999D01*
G01*
G37*
X90800200Y-138049200D03*
X85720200Y-138049200D03*
G36*
G01*
X79600200Y-139599201D02*
X79600200Y-136499199D01*
G75*
G02*
X79850199Y-136249200I249999J0D01*
G01*
X81430201Y-136249200D01*
G75*
G02*
X81680200Y-136499199I0J-249999D01*
G01*
X81680200Y-139599201D01*
G75*
G02*
X81430201Y-139849200I-249999J0D01*
G01*
X79850199Y-139849200D01*
G75*
G02*
X79600200Y-139599201I0J249999D01*
G01*
G37*
G36*
G01*
X149134680Y-94474999D02*
X149134680Y-97575001D01*
G75*
G02*
X148884681Y-97825000I-249999J0D01*
G01*
X147304679Y-97825000D01*
G75*
G02*
X147054680Y-97575001I0J249999D01*
G01*
X147054680Y-94474999D01*
G75*
G02*
X147304679Y-94225000I249999J0D01*
G01*
X148884681Y-94225000D01*
G75*
G02*
X149134680Y-94474999I0J-249999D01*
G01*
G37*
X143014680Y-96025000D03*
X137934680Y-96025000D03*
X118836520Y-96025000D03*
X123916520Y-96025000D03*
G36*
G01*
X130036520Y-94474999D02*
X130036520Y-97575001D01*
G75*
G02*
X129786521Y-97825000I-249999J0D01*
G01*
X128206519Y-97825000D01*
G75*
G02*
X127956520Y-97575001I0J249999D01*
G01*
X127956520Y-94474999D01*
G75*
G02*
X128206519Y-94225000I249999J0D01*
G01*
X129786521Y-94225000D01*
G75*
G02*
X130036520Y-94474999I0J-249999D01*
G01*
G37*
G36*
G01*
X130036520Y-84895199D02*
X130036520Y-87995201D01*
G75*
G02*
X129786521Y-88245200I-249999J0D01*
G01*
X128206519Y-88245200D01*
G75*
G02*
X127956520Y-87995201I0J249999D01*
G01*
X127956520Y-84895199D01*
G75*
G02*
X128206519Y-84645200I249999J0D01*
G01*
X129786521Y-84645200D01*
G75*
G02*
X130036520Y-84895199I0J-249999D01*
G01*
G37*
X123916520Y-86445200D03*
X118836520Y-86445200D03*
X137934680Y-86445200D03*
X143014680Y-86445200D03*
G36*
G01*
X149134680Y-84895199D02*
X149134680Y-87995201D01*
G75*
G02*
X148884681Y-88245200I-249999J0D01*
G01*
X147304679Y-88245200D01*
G75*
G02*
X147054680Y-87995201I0J249999D01*
G01*
X147054680Y-84895199D01*
G75*
G02*
X147304679Y-84645200I249999J0D01*
G01*
X148884681Y-84645200D01*
G75*
G02*
X149134680Y-84895199I0J-249999D01*
G01*
G37*
D17*
G36*
X176378000Y-123210000D02*
G01*
X176378000Y-120910000D01*
X179978000Y-121510000D01*
X179978000Y-122610000D01*
X176378000Y-123210000D01*
G37*
G36*
X185778000Y-120910000D02*
G01*
X185778000Y-123210000D01*
X182178000Y-122610000D01*
X182178000Y-121510000D01*
X185778000Y-120910000D01*
G37*
G36*
X157582000Y-122956000D02*
G01*
X157582000Y-120656000D01*
X161182000Y-121256000D01*
X161182000Y-122356000D01*
X157582000Y-122956000D01*
G37*
G36*
X166982000Y-120656000D02*
G01*
X166982000Y-122956000D01*
X163382000Y-122356000D01*
X163382000Y-121256000D01*
X166982000Y-120656000D01*
G37*
G36*
X100178000Y-122448000D02*
G01*
X100178000Y-120148000D01*
X103778000Y-120748000D01*
X103778000Y-121848000D01*
X100178000Y-122448000D01*
G37*
G36*
X109578000Y-120148000D02*
G01*
X109578000Y-122448000D01*
X105978000Y-121848000D01*
X105978000Y-120748000D01*
X109578000Y-120148000D01*
G37*
G36*
X81128000Y-122448000D02*
G01*
X81128000Y-120148000D01*
X84728000Y-120748000D01*
X84728000Y-121848000D01*
X81128000Y-122448000D01*
G37*
G36*
X90528000Y-120148000D02*
G01*
X90528000Y-122448000D01*
X86928000Y-121848000D01*
X86928000Y-120748000D01*
X90528000Y-120148000D01*
G37*
G36*
G01*
X85238500Y-107646000D02*
X84893500Y-107646000D01*
G75*
G02*
X84746000Y-107498500I0J147500D01*
G01*
X84746000Y-107203500D01*
G75*
G02*
X84893500Y-107056000I147500J0D01*
G01*
X85238500Y-107056000D01*
G75*
G02*
X85386000Y-107203500I0J-147500D01*
G01*
X85386000Y-107498500D01*
G75*
G02*
X85238500Y-107646000I-147500J0D01*
G01*
G37*
G36*
G01*
X85238500Y-108616000D02*
X84893500Y-108616000D01*
G75*
G02*
X84746000Y-108468500I0J147500D01*
G01*
X84746000Y-108173500D01*
G75*
G02*
X84893500Y-108026000I147500J0D01*
G01*
X85238500Y-108026000D01*
G75*
G02*
X85386000Y-108173500I0J-147500D01*
G01*
X85386000Y-108468500D01*
G75*
G02*
X85238500Y-108616000I-147500J0D01*
G01*
G37*
G36*
G01*
X124862500Y-110440000D02*
X124517500Y-110440000D01*
G75*
G02*
X124370000Y-110292500I0J147500D01*
G01*
X124370000Y-109997500D01*
G75*
G02*
X124517500Y-109850000I147500J0D01*
G01*
X124862500Y-109850000D01*
G75*
G02*
X125010000Y-109997500I0J-147500D01*
G01*
X125010000Y-110292500D01*
G75*
G02*
X124862500Y-110440000I-147500J0D01*
G01*
G37*
G36*
G01*
X124862500Y-111410000D02*
X124517500Y-111410000D01*
G75*
G02*
X124370000Y-111262500I0J147500D01*
G01*
X124370000Y-110967500D01*
G75*
G02*
X124517500Y-110820000I147500J0D01*
G01*
X124862500Y-110820000D01*
G75*
G02*
X125010000Y-110967500I0J-147500D01*
G01*
X125010000Y-111262500D01*
G75*
G02*
X124862500Y-111410000I-147500J0D01*
G01*
G37*
M02*
