G04 #@! TF.GenerationSoftware,KiCad,Pcbnew,(5.1.6)-1*
G04 #@! TF.CreationDate,2020-09-21T23:14:33+02:00*
G04 #@! TF.ProjectId,Brewnode_PCB,42726577-6e6f-4646-955f-5043422e6b69,1.0*
G04 #@! TF.SameCoordinates,Original*
G04 #@! TF.FileFunction,Copper,L1,Top*
G04 #@! TF.FilePolarity,Positive*
%FSLAX46Y46*%
G04 Gerber Fmt 4.6, Leading zero omitted, Abs format (unit mm)*
G04 Created by KiCad (PCBNEW (5.1.6)-1) date 2020-09-21 23:14:33*
%MOMM*%
%LPD*%
G01*
G04 APERTURE LIST*
G04 #@! TA.AperFunction,ComponentPad*
%ADD10O,2.080000X3.600000*%
G04 #@! TD*
G04 #@! TA.AperFunction,SMDPad,CuDef*
%ADD11R,0.900000X0.800000*%
G04 #@! TD*
G04 #@! TA.AperFunction,ComponentPad*
%ADD12C,3.000000*%
G04 #@! TD*
G04 #@! TA.AperFunction,ComponentPad*
%ADD13C,2.500000*%
G04 #@! TD*
G04 #@! TA.AperFunction,ComponentPad*
%ADD14O,1.700000X1.700000*%
G04 #@! TD*
G04 #@! TA.AperFunction,ComponentPad*
%ADD15R,1.700000X1.700000*%
G04 #@! TD*
G04 #@! TA.AperFunction,SMDPad,CuDef*
%ADD16R,0.800000X0.800000*%
G04 #@! TD*
G04 #@! TA.AperFunction,SMDPad,CuDef*
%ADD17R,0.800000X0.250000*%
G04 #@! TD*
G04 #@! TA.AperFunction,ViaPad*
%ADD18C,0.800000*%
G04 #@! TD*
G04 #@! TA.AperFunction,ViaPad*
%ADD19C,2.000000*%
G04 #@! TD*
G04 #@! TA.AperFunction,Conductor*
%ADD20C,0.254000*%
G04 #@! TD*
G04 #@! TA.AperFunction,Conductor*
%ADD21C,0.609600*%
G04 #@! TD*
G04 #@! TA.AperFunction,Conductor*
%ADD22C,0.304800*%
G04 #@! TD*
G04 #@! TA.AperFunction,Conductor*
%ADD23C,1.016000*%
G04 #@! TD*
G04 #@! TA.AperFunction,Conductor*
%ADD24C,1.270000*%
G04 #@! TD*
G04 #@! TA.AperFunction,Conductor*
%ADD25C,0.406400*%
G04 #@! TD*
G04 #@! TA.AperFunction,Conductor*
%ADD26C,0.812800*%
G04 #@! TD*
G04 #@! TA.AperFunction,Conductor*
%ADD27C,1.778000*%
G04 #@! TD*
G04 APERTURE END LIST*
D10*
X186295000Y-137987200D03*
X181215000Y-137987200D03*
G04 #@! TA.AperFunction,ComponentPad*
G36*
G01*
X175095000Y-139537201D02*
X175095000Y-136437199D01*
G75*
G02*
X175344999Y-136187200I249999J0D01*
G01*
X176925001Y-136187200D01*
G75*
G02*
X177175000Y-136437199I0J-249999D01*
G01*
X177175000Y-139537201D01*
G75*
G02*
X176925001Y-139787200I-249999J0D01*
G01*
X175344999Y-139787200D01*
G75*
G02*
X175095000Y-139537201I0J249999D01*
G01*
G37*
G04 #@! TD.AperFunction*
X167192840Y-137987200D03*
X162112840Y-137987200D03*
G04 #@! TA.AperFunction,ComponentPad*
G36*
G01*
X155992840Y-139537201D02*
X155992840Y-136437199D01*
G75*
G02*
X156242839Y-136187200I249999J0D01*
G01*
X157822841Y-136187200D01*
G75*
G02*
X158072840Y-136437199I0J-249999D01*
G01*
X158072840Y-139537201D01*
G75*
G02*
X157822841Y-139787200I-249999J0D01*
G01*
X156242839Y-139787200D01*
G75*
G02*
X155992840Y-139537201I0J249999D01*
G01*
G37*
G04 #@! TD.AperFunction*
G04 #@! TA.AperFunction,SMDPad,CuDef*
G36*
G01*
X83451000Y-109311000D02*
X83601000Y-109311000D01*
G75*
G02*
X83676000Y-109386000I0J-75000D01*
G01*
X83676000Y-110686000D01*
G75*
G02*
X83601000Y-110761000I-75000J0D01*
G01*
X83451000Y-110761000D01*
G75*
G02*
X83376000Y-110686000I0J75000D01*
G01*
X83376000Y-109386000D01*
G75*
G02*
X83451000Y-109311000I75000J0D01*
G01*
G37*
G04 #@! TD.AperFunction*
G04 #@! TA.AperFunction,SMDPad,CuDef*
G36*
G01*
X82951000Y-109311000D02*
X83101000Y-109311000D01*
G75*
G02*
X83176000Y-109386000I0J-75000D01*
G01*
X83176000Y-110686000D01*
G75*
G02*
X83101000Y-110761000I-75000J0D01*
G01*
X82951000Y-110761000D01*
G75*
G02*
X82876000Y-110686000I0J75000D01*
G01*
X82876000Y-109386000D01*
G75*
G02*
X82951000Y-109311000I75000J0D01*
G01*
G37*
G04 #@! TD.AperFunction*
G04 #@! TA.AperFunction,SMDPad,CuDef*
G36*
G01*
X82451000Y-109311000D02*
X82601000Y-109311000D01*
G75*
G02*
X82676000Y-109386000I0J-75000D01*
G01*
X82676000Y-110686000D01*
G75*
G02*
X82601000Y-110761000I-75000J0D01*
G01*
X82451000Y-110761000D01*
G75*
G02*
X82376000Y-110686000I0J75000D01*
G01*
X82376000Y-109386000D01*
G75*
G02*
X82451000Y-109311000I75000J0D01*
G01*
G37*
G04 #@! TD.AperFunction*
G04 #@! TA.AperFunction,SMDPad,CuDef*
G36*
G01*
X81951000Y-109311000D02*
X82101000Y-109311000D01*
G75*
G02*
X82176000Y-109386000I0J-75000D01*
G01*
X82176000Y-110686000D01*
G75*
G02*
X82101000Y-110761000I-75000J0D01*
G01*
X81951000Y-110761000D01*
G75*
G02*
X81876000Y-110686000I0J75000D01*
G01*
X81876000Y-109386000D01*
G75*
G02*
X81951000Y-109311000I75000J0D01*
G01*
G37*
G04 #@! TD.AperFunction*
G04 #@! TA.AperFunction,SMDPad,CuDef*
G36*
G01*
X81451000Y-109311000D02*
X81601000Y-109311000D01*
G75*
G02*
X81676000Y-109386000I0J-75000D01*
G01*
X81676000Y-110686000D01*
G75*
G02*
X81601000Y-110761000I-75000J0D01*
G01*
X81451000Y-110761000D01*
G75*
G02*
X81376000Y-110686000I0J75000D01*
G01*
X81376000Y-109386000D01*
G75*
G02*
X81451000Y-109311000I75000J0D01*
G01*
G37*
G04 #@! TD.AperFunction*
G04 #@! TA.AperFunction,SMDPad,CuDef*
G36*
G01*
X81451000Y-104911000D02*
X81601000Y-104911000D01*
G75*
G02*
X81676000Y-104986000I0J-75000D01*
G01*
X81676000Y-106286000D01*
G75*
G02*
X81601000Y-106361000I-75000J0D01*
G01*
X81451000Y-106361000D01*
G75*
G02*
X81376000Y-106286000I0J75000D01*
G01*
X81376000Y-104986000D01*
G75*
G02*
X81451000Y-104911000I75000J0D01*
G01*
G37*
G04 #@! TD.AperFunction*
G04 #@! TA.AperFunction,SMDPad,CuDef*
G36*
G01*
X81951000Y-104911000D02*
X82101000Y-104911000D01*
G75*
G02*
X82176000Y-104986000I0J-75000D01*
G01*
X82176000Y-106286000D01*
G75*
G02*
X82101000Y-106361000I-75000J0D01*
G01*
X81951000Y-106361000D01*
G75*
G02*
X81876000Y-106286000I0J75000D01*
G01*
X81876000Y-104986000D01*
G75*
G02*
X81951000Y-104911000I75000J0D01*
G01*
G37*
G04 #@! TD.AperFunction*
G04 #@! TA.AperFunction,SMDPad,CuDef*
G36*
G01*
X82451000Y-104911000D02*
X82601000Y-104911000D01*
G75*
G02*
X82676000Y-104986000I0J-75000D01*
G01*
X82676000Y-106286000D01*
G75*
G02*
X82601000Y-106361000I-75000J0D01*
G01*
X82451000Y-106361000D01*
G75*
G02*
X82376000Y-106286000I0J75000D01*
G01*
X82376000Y-104986000D01*
G75*
G02*
X82451000Y-104911000I75000J0D01*
G01*
G37*
G04 #@! TD.AperFunction*
G04 #@! TA.AperFunction,SMDPad,CuDef*
G36*
G01*
X82951000Y-104911000D02*
X83101000Y-104911000D01*
G75*
G02*
X83176000Y-104986000I0J-75000D01*
G01*
X83176000Y-106286000D01*
G75*
G02*
X83101000Y-106361000I-75000J0D01*
G01*
X82951000Y-106361000D01*
G75*
G02*
X82876000Y-106286000I0J75000D01*
G01*
X82876000Y-104986000D01*
G75*
G02*
X82951000Y-104911000I75000J0D01*
G01*
G37*
G04 #@! TD.AperFunction*
G04 #@! TA.AperFunction,SMDPad,CuDef*
G36*
G01*
X83451000Y-104911000D02*
X83601000Y-104911000D01*
G75*
G02*
X83676000Y-104986000I0J-75000D01*
G01*
X83676000Y-106286000D01*
G75*
G02*
X83601000Y-106361000I-75000J0D01*
G01*
X83451000Y-106361000D01*
G75*
G02*
X83376000Y-106286000I0J75000D01*
G01*
X83376000Y-104986000D01*
G75*
G02*
X83451000Y-104911000I75000J0D01*
G01*
G37*
G04 #@! TD.AperFunction*
G04 #@! TA.AperFunction,SMDPad,CuDef*
G36*
G01*
X129493000Y-114255000D02*
X129793000Y-114255000D01*
G75*
G02*
X129943000Y-114405000I0J-150000D01*
G01*
X129943000Y-116155000D01*
G75*
G02*
X129793000Y-116305000I-150000J0D01*
G01*
X129493000Y-116305000D01*
G75*
G02*
X129343000Y-116155000I0J150000D01*
G01*
X129343000Y-114405000D01*
G75*
G02*
X129493000Y-114255000I150000J0D01*
G01*
G37*
G04 #@! TD.AperFunction*
G04 #@! TA.AperFunction,SMDPad,CuDef*
G36*
G01*
X128223000Y-114255000D02*
X128523000Y-114255000D01*
G75*
G02*
X128673000Y-114405000I0J-150000D01*
G01*
X128673000Y-116155000D01*
G75*
G02*
X128523000Y-116305000I-150000J0D01*
G01*
X128223000Y-116305000D01*
G75*
G02*
X128073000Y-116155000I0J150000D01*
G01*
X128073000Y-114405000D01*
G75*
G02*
X128223000Y-114255000I150000J0D01*
G01*
G37*
G04 #@! TD.AperFunction*
G04 #@! TA.AperFunction,SMDPad,CuDef*
G36*
G01*
X126953000Y-114255000D02*
X127253000Y-114255000D01*
G75*
G02*
X127403000Y-114405000I0J-150000D01*
G01*
X127403000Y-116155000D01*
G75*
G02*
X127253000Y-116305000I-150000J0D01*
G01*
X126953000Y-116305000D01*
G75*
G02*
X126803000Y-116155000I0J150000D01*
G01*
X126803000Y-114405000D01*
G75*
G02*
X126953000Y-114255000I150000J0D01*
G01*
G37*
G04 #@! TD.AperFunction*
G04 #@! TA.AperFunction,SMDPad,CuDef*
G36*
G01*
X125683000Y-114255000D02*
X125983000Y-114255000D01*
G75*
G02*
X126133000Y-114405000I0J-150000D01*
G01*
X126133000Y-116155000D01*
G75*
G02*
X125983000Y-116305000I-150000J0D01*
G01*
X125683000Y-116305000D01*
G75*
G02*
X125533000Y-116155000I0J150000D01*
G01*
X125533000Y-114405000D01*
G75*
G02*
X125683000Y-114255000I150000J0D01*
G01*
G37*
G04 #@! TD.AperFunction*
G04 #@! TA.AperFunction,SMDPad,CuDef*
G36*
G01*
X124413000Y-114255000D02*
X124713000Y-114255000D01*
G75*
G02*
X124863000Y-114405000I0J-150000D01*
G01*
X124863000Y-116155000D01*
G75*
G02*
X124713000Y-116305000I-150000J0D01*
G01*
X124413000Y-116305000D01*
G75*
G02*
X124263000Y-116155000I0J150000D01*
G01*
X124263000Y-114405000D01*
G75*
G02*
X124413000Y-114255000I150000J0D01*
G01*
G37*
G04 #@! TD.AperFunction*
G04 #@! TA.AperFunction,SMDPad,CuDef*
G36*
G01*
X123143000Y-114255000D02*
X123443000Y-114255000D01*
G75*
G02*
X123593000Y-114405000I0J-150000D01*
G01*
X123593000Y-116155000D01*
G75*
G02*
X123443000Y-116305000I-150000J0D01*
G01*
X123143000Y-116305000D01*
G75*
G02*
X122993000Y-116155000I0J150000D01*
G01*
X122993000Y-114405000D01*
G75*
G02*
X123143000Y-114255000I150000J0D01*
G01*
G37*
G04 #@! TD.AperFunction*
G04 #@! TA.AperFunction,SMDPad,CuDef*
G36*
G01*
X121873000Y-114255000D02*
X122173000Y-114255000D01*
G75*
G02*
X122323000Y-114405000I0J-150000D01*
G01*
X122323000Y-116155000D01*
G75*
G02*
X122173000Y-116305000I-150000J0D01*
G01*
X121873000Y-116305000D01*
G75*
G02*
X121723000Y-116155000I0J150000D01*
G01*
X121723000Y-114405000D01*
G75*
G02*
X121873000Y-114255000I150000J0D01*
G01*
G37*
G04 #@! TD.AperFunction*
G04 #@! TA.AperFunction,SMDPad,CuDef*
G36*
G01*
X120603000Y-114255000D02*
X120903000Y-114255000D01*
G75*
G02*
X121053000Y-114405000I0J-150000D01*
G01*
X121053000Y-116155000D01*
G75*
G02*
X120903000Y-116305000I-150000J0D01*
G01*
X120603000Y-116305000D01*
G75*
G02*
X120453000Y-116155000I0J150000D01*
G01*
X120453000Y-114405000D01*
G75*
G02*
X120603000Y-114255000I150000J0D01*
G01*
G37*
G04 #@! TD.AperFunction*
G04 #@! TA.AperFunction,SMDPad,CuDef*
G36*
G01*
X120603000Y-104955000D02*
X120903000Y-104955000D01*
G75*
G02*
X121053000Y-105105000I0J-150000D01*
G01*
X121053000Y-106855000D01*
G75*
G02*
X120903000Y-107005000I-150000J0D01*
G01*
X120603000Y-107005000D01*
G75*
G02*
X120453000Y-106855000I0J150000D01*
G01*
X120453000Y-105105000D01*
G75*
G02*
X120603000Y-104955000I150000J0D01*
G01*
G37*
G04 #@! TD.AperFunction*
G04 #@! TA.AperFunction,SMDPad,CuDef*
G36*
G01*
X121873000Y-104955000D02*
X122173000Y-104955000D01*
G75*
G02*
X122323000Y-105105000I0J-150000D01*
G01*
X122323000Y-106855000D01*
G75*
G02*
X122173000Y-107005000I-150000J0D01*
G01*
X121873000Y-107005000D01*
G75*
G02*
X121723000Y-106855000I0J150000D01*
G01*
X121723000Y-105105000D01*
G75*
G02*
X121873000Y-104955000I150000J0D01*
G01*
G37*
G04 #@! TD.AperFunction*
G04 #@! TA.AperFunction,SMDPad,CuDef*
G36*
G01*
X123143000Y-104955000D02*
X123443000Y-104955000D01*
G75*
G02*
X123593000Y-105105000I0J-150000D01*
G01*
X123593000Y-106855000D01*
G75*
G02*
X123443000Y-107005000I-150000J0D01*
G01*
X123143000Y-107005000D01*
G75*
G02*
X122993000Y-106855000I0J150000D01*
G01*
X122993000Y-105105000D01*
G75*
G02*
X123143000Y-104955000I150000J0D01*
G01*
G37*
G04 #@! TD.AperFunction*
G04 #@! TA.AperFunction,SMDPad,CuDef*
G36*
G01*
X124413000Y-104955000D02*
X124713000Y-104955000D01*
G75*
G02*
X124863000Y-105105000I0J-150000D01*
G01*
X124863000Y-106855000D01*
G75*
G02*
X124713000Y-107005000I-150000J0D01*
G01*
X124413000Y-107005000D01*
G75*
G02*
X124263000Y-106855000I0J150000D01*
G01*
X124263000Y-105105000D01*
G75*
G02*
X124413000Y-104955000I150000J0D01*
G01*
G37*
G04 #@! TD.AperFunction*
G04 #@! TA.AperFunction,SMDPad,CuDef*
G36*
G01*
X125683000Y-104955000D02*
X125983000Y-104955000D01*
G75*
G02*
X126133000Y-105105000I0J-150000D01*
G01*
X126133000Y-106855000D01*
G75*
G02*
X125983000Y-107005000I-150000J0D01*
G01*
X125683000Y-107005000D01*
G75*
G02*
X125533000Y-106855000I0J150000D01*
G01*
X125533000Y-105105000D01*
G75*
G02*
X125683000Y-104955000I150000J0D01*
G01*
G37*
G04 #@! TD.AperFunction*
G04 #@! TA.AperFunction,SMDPad,CuDef*
G36*
G01*
X126953000Y-104955000D02*
X127253000Y-104955000D01*
G75*
G02*
X127403000Y-105105000I0J-150000D01*
G01*
X127403000Y-106855000D01*
G75*
G02*
X127253000Y-107005000I-150000J0D01*
G01*
X126953000Y-107005000D01*
G75*
G02*
X126803000Y-106855000I0J150000D01*
G01*
X126803000Y-105105000D01*
G75*
G02*
X126953000Y-104955000I150000J0D01*
G01*
G37*
G04 #@! TD.AperFunction*
G04 #@! TA.AperFunction,SMDPad,CuDef*
G36*
G01*
X128223000Y-104955000D02*
X128523000Y-104955000D01*
G75*
G02*
X128673000Y-105105000I0J-150000D01*
G01*
X128673000Y-106855000D01*
G75*
G02*
X128523000Y-107005000I-150000J0D01*
G01*
X128223000Y-107005000D01*
G75*
G02*
X128073000Y-106855000I0J150000D01*
G01*
X128073000Y-105105000D01*
G75*
G02*
X128223000Y-104955000I150000J0D01*
G01*
G37*
G04 #@! TD.AperFunction*
G04 #@! TA.AperFunction,SMDPad,CuDef*
G36*
G01*
X129493000Y-104955000D02*
X129793000Y-104955000D01*
G75*
G02*
X129943000Y-105105000I0J-150000D01*
G01*
X129943000Y-106855000D01*
G75*
G02*
X129793000Y-107005000I-150000J0D01*
G01*
X129493000Y-107005000D01*
G75*
G02*
X129343000Y-106855000I0J150000D01*
G01*
X129343000Y-105105000D01*
G75*
G02*
X129493000Y-104955000I150000J0D01*
G01*
G37*
G04 #@! TD.AperFunction*
G04 #@! TA.AperFunction,SMDPad,CuDef*
G36*
G01*
X145714001Y-126944000D02*
X144813999Y-126944000D01*
G75*
G02*
X144564000Y-126694001I0J249999D01*
G01*
X144564000Y-126043999D01*
G75*
G02*
X144813999Y-125794000I249999J0D01*
G01*
X145714001Y-125794000D01*
G75*
G02*
X145964000Y-126043999I0J-249999D01*
G01*
X145964000Y-126694001D01*
G75*
G02*
X145714001Y-126944000I-249999J0D01*
G01*
G37*
G04 #@! TD.AperFunction*
G04 #@! TA.AperFunction,SMDPad,CuDef*
G36*
G01*
X145714001Y-128994000D02*
X144813999Y-128994000D01*
G75*
G02*
X144564000Y-128744001I0J249999D01*
G01*
X144564000Y-128093999D01*
G75*
G02*
X144813999Y-127844000I249999J0D01*
G01*
X145714001Y-127844000D01*
G75*
G02*
X145964000Y-128093999I0J-249999D01*
G01*
X145964000Y-128744001D01*
G75*
G02*
X145714001Y-128994000I-249999J0D01*
G01*
G37*
G04 #@! TD.AperFunction*
G04 #@! TA.AperFunction,SMDPad,CuDef*
G36*
G01*
X145714001Y-120848000D02*
X144813999Y-120848000D01*
G75*
G02*
X144564000Y-120598001I0J249999D01*
G01*
X144564000Y-119947999D01*
G75*
G02*
X144813999Y-119698000I249999J0D01*
G01*
X145714001Y-119698000D01*
G75*
G02*
X145964000Y-119947999I0J-249999D01*
G01*
X145964000Y-120598001D01*
G75*
G02*
X145714001Y-120848000I-249999J0D01*
G01*
G37*
G04 #@! TD.AperFunction*
G04 #@! TA.AperFunction,SMDPad,CuDef*
G36*
G01*
X145714001Y-122898000D02*
X144813999Y-122898000D01*
G75*
G02*
X144564000Y-122648001I0J249999D01*
G01*
X144564000Y-121997999D01*
G75*
G02*
X144813999Y-121748000I249999J0D01*
G01*
X145714001Y-121748000D01*
G75*
G02*
X145964000Y-121997999I0J-249999D01*
G01*
X145964000Y-122648001D01*
G75*
G02*
X145714001Y-122898000I-249999J0D01*
G01*
G37*
G04 #@! TD.AperFunction*
G04 #@! TA.AperFunction,SMDPad,CuDef*
G36*
G01*
X122600001Y-122626000D02*
X121699999Y-122626000D01*
G75*
G02*
X121450000Y-122376001I0J249999D01*
G01*
X121450000Y-121725999D01*
G75*
G02*
X121699999Y-121476000I249999J0D01*
G01*
X122600001Y-121476000D01*
G75*
G02*
X122850000Y-121725999I0J-249999D01*
G01*
X122850000Y-122376001D01*
G75*
G02*
X122600001Y-122626000I-249999J0D01*
G01*
G37*
G04 #@! TD.AperFunction*
G04 #@! TA.AperFunction,SMDPad,CuDef*
G36*
G01*
X122600001Y-124676000D02*
X121699999Y-124676000D01*
G75*
G02*
X121450000Y-124426001I0J249999D01*
G01*
X121450000Y-123775999D01*
G75*
G02*
X121699999Y-123526000I249999J0D01*
G01*
X122600001Y-123526000D01*
G75*
G02*
X122850000Y-123775999I0J-249999D01*
G01*
X122850000Y-124426001D01*
G75*
G02*
X122600001Y-124676000I-249999J0D01*
G01*
G37*
G04 #@! TD.AperFunction*
G04 #@! TA.AperFunction,SMDPad,CuDef*
G36*
G01*
X122600001Y-128722000D02*
X121699999Y-128722000D01*
G75*
G02*
X121450000Y-128472001I0J249999D01*
G01*
X121450000Y-127821999D01*
G75*
G02*
X121699999Y-127572000I249999J0D01*
G01*
X122600001Y-127572000D01*
G75*
G02*
X122850000Y-127821999I0J-249999D01*
G01*
X122850000Y-128472001D01*
G75*
G02*
X122600001Y-128722000I-249999J0D01*
G01*
G37*
G04 #@! TD.AperFunction*
G04 #@! TA.AperFunction,SMDPad,CuDef*
G36*
G01*
X122600001Y-130772000D02*
X121699999Y-130772000D01*
G75*
G02*
X121450000Y-130522001I0J249999D01*
G01*
X121450000Y-129871999D01*
G75*
G02*
X121699999Y-129622000I249999J0D01*
G01*
X122600001Y-129622000D01*
G75*
G02*
X122850000Y-129871999I0J-249999D01*
G01*
X122850000Y-130522001D01*
G75*
G02*
X122600001Y-130772000I-249999J0D01*
G01*
G37*
G04 #@! TD.AperFunction*
G04 #@! TA.AperFunction,SMDPad,CuDef*
G36*
G01*
X192311999Y-125304000D02*
X193212001Y-125304000D01*
G75*
G02*
X193462000Y-125553999I0J-249999D01*
G01*
X193462000Y-126204001D01*
G75*
G02*
X193212001Y-126454000I-249999J0D01*
G01*
X192311999Y-126454000D01*
G75*
G02*
X192062000Y-126204001I0J249999D01*
G01*
X192062000Y-125553999D01*
G75*
G02*
X192311999Y-125304000I249999J0D01*
G01*
G37*
G04 #@! TD.AperFunction*
G04 #@! TA.AperFunction,SMDPad,CuDef*
G36*
G01*
X192311999Y-123254000D02*
X193212001Y-123254000D01*
G75*
G02*
X193462000Y-123503999I0J-249999D01*
G01*
X193462000Y-124154001D01*
G75*
G02*
X193212001Y-124404000I-249999J0D01*
G01*
X192311999Y-124404000D01*
G75*
G02*
X192062000Y-124154001I0J249999D01*
G01*
X192062000Y-123503999D01*
G75*
G02*
X192311999Y-123254000I249999J0D01*
G01*
G37*
G04 #@! TD.AperFunction*
G04 #@! TA.AperFunction,SMDPad,CuDef*
G36*
G01*
X197899999Y-125304000D02*
X198800001Y-125304000D01*
G75*
G02*
X199050000Y-125553999I0J-249999D01*
G01*
X199050000Y-126204001D01*
G75*
G02*
X198800001Y-126454000I-249999J0D01*
G01*
X197899999Y-126454000D01*
G75*
G02*
X197650000Y-126204001I0J249999D01*
G01*
X197650000Y-125553999D01*
G75*
G02*
X197899999Y-125304000I249999J0D01*
G01*
G37*
G04 #@! TD.AperFunction*
G04 #@! TA.AperFunction,SMDPad,CuDef*
G36*
G01*
X197899999Y-123254000D02*
X198800001Y-123254000D01*
G75*
G02*
X199050000Y-123503999I0J-249999D01*
G01*
X199050000Y-124154001D01*
G75*
G02*
X198800001Y-124404000I-249999J0D01*
G01*
X197899999Y-124404000D01*
G75*
G02*
X197650000Y-124154001I0J249999D01*
G01*
X197650000Y-123503999D01*
G75*
G02*
X197899999Y-123254000I249999J0D01*
G01*
G37*
G04 #@! TD.AperFunction*
D11*
X151344000Y-127140000D03*
X149344000Y-128090000D03*
X149344000Y-126190000D03*
X151328000Y-121110000D03*
X149328000Y-122060000D03*
X149328000Y-120160000D03*
X116070000Y-121044000D03*
X118070000Y-120094000D03*
X118070000Y-121994000D03*
X116070000Y-127140000D03*
X118070000Y-126190000D03*
X118070000Y-128090000D03*
D12*
X181215000Y-115837000D03*
D13*
X187165000Y-117787000D03*
D12*
X187215000Y-130037000D03*
X175165000Y-129987000D03*
D13*
X175165000Y-117787000D03*
D12*
X162112840Y-115837000D03*
D13*
X168062840Y-117787000D03*
D12*
X168112840Y-130037000D03*
X156062840Y-129987000D03*
D13*
X156062840Y-117787000D03*
D12*
X104818360Y-115075000D03*
D13*
X110768360Y-117025000D03*
D12*
X110818360Y-129275000D03*
X98768360Y-129225000D03*
D13*
X98768360Y-117025000D03*
D12*
X85720200Y-115075000D03*
D13*
X91670200Y-117025000D03*
D12*
X91720200Y-129275000D03*
X79670200Y-129225000D03*
D13*
X79670200Y-117025000D03*
D14*
X69826000Y-128631666D03*
D15*
X69826000Y-131171666D03*
D14*
X73636000Y-131161666D03*
D15*
X73636000Y-128621666D03*
D14*
X69826000Y-116284444D03*
D15*
X69826000Y-118824444D03*
D14*
X73636000Y-118814444D03*
D15*
X73636000Y-116274444D03*
D14*
X69826000Y-103937222D03*
D15*
X69826000Y-106477222D03*
D14*
X73636000Y-106467222D03*
D15*
X73636000Y-103927222D03*
D14*
X69826000Y-91580000D03*
D15*
X69826000Y-94120000D03*
D14*
X73636000Y-94120000D03*
D15*
X73636000Y-91580000D03*
D16*
X196786000Y-100962000D03*
X196786000Y-111662000D03*
D17*
X194286000Y-102562000D03*
X194286000Y-103062000D03*
X194286000Y-103562000D03*
X194286000Y-104062000D03*
X194286000Y-104562000D03*
X194286000Y-105062000D03*
X194286000Y-105562000D03*
X194286000Y-106062000D03*
X194286000Y-106562000D03*
X194286000Y-107062000D03*
X194286000Y-107562000D03*
X194286000Y-108062000D03*
X194286000Y-108562000D03*
X194286000Y-109062000D03*
X194286000Y-109562000D03*
X194286000Y-110062000D03*
D10*
X176135000Y-96025000D03*
X181215000Y-96025000D03*
G04 #@! TA.AperFunction,ComponentPad*
G36*
G01*
X187335000Y-94474999D02*
X187335000Y-97575001D01*
G75*
G02*
X187085001Y-97825000I-249999J0D01*
G01*
X185504999Y-97825000D01*
G75*
G02*
X185255000Y-97575001I0J249999D01*
G01*
X185255000Y-94474999D01*
G75*
G02*
X185504999Y-94225000I249999J0D01*
G01*
X187085001Y-94225000D01*
G75*
G02*
X187335000Y-94474999I0J-249999D01*
G01*
G37*
G04 #@! TD.AperFunction*
X157032840Y-96025000D03*
X162112840Y-96025000D03*
G04 #@! TA.AperFunction,ComponentPad*
G36*
G01*
X168232840Y-94474999D02*
X168232840Y-97575001D01*
G75*
G02*
X167982841Y-97825000I-249999J0D01*
G01*
X166402839Y-97825000D01*
G75*
G02*
X166152840Y-97575001I0J249999D01*
G01*
X166152840Y-94474999D01*
G75*
G02*
X166402839Y-94225000I249999J0D01*
G01*
X167982841Y-94225000D01*
G75*
G02*
X168232840Y-94474999I0J-249999D01*
G01*
G37*
G04 #@! TD.AperFunction*
X157032840Y-86445200D03*
X162112840Y-86445200D03*
G04 #@! TA.AperFunction,ComponentPad*
G36*
G01*
X168232840Y-84895199D02*
X168232840Y-87995201D01*
G75*
G02*
X167982841Y-88245200I-249999J0D01*
G01*
X166402839Y-88245200D01*
G75*
G02*
X166152840Y-87995201I0J249999D01*
G01*
X166152840Y-84895199D01*
G75*
G02*
X166402839Y-84645200I249999J0D01*
G01*
X167982841Y-84645200D01*
G75*
G02*
X168232840Y-84895199I0J-249999D01*
G01*
G37*
G04 #@! TD.AperFunction*
X176131000Y-86445200D03*
X181211000Y-86445200D03*
G04 #@! TA.AperFunction,ComponentPad*
G36*
G01*
X187331000Y-84895199D02*
X187331000Y-87995201D01*
G75*
G02*
X187081001Y-88245200I-249999J0D01*
G01*
X185500999Y-88245200D01*
G75*
G02*
X185251000Y-87995201I0J249999D01*
G01*
X185251000Y-84895199D01*
G75*
G02*
X185500999Y-84645200I249999J0D01*
G01*
X187081001Y-84645200D01*
G75*
G02*
X187331000Y-84895199I0J-249999D01*
G01*
G37*
G04 #@! TD.AperFunction*
X99738360Y-96025000D03*
X104818360Y-96025000D03*
G04 #@! TA.AperFunction,ComponentPad*
G36*
G01*
X110938360Y-94474999D02*
X110938360Y-97575001D01*
G75*
G02*
X110688361Y-97825000I-249999J0D01*
G01*
X109108359Y-97825000D01*
G75*
G02*
X108858360Y-97575001I0J249999D01*
G01*
X108858360Y-94474999D01*
G75*
G02*
X109108359Y-94225000I249999J0D01*
G01*
X110688361Y-94225000D01*
G75*
G02*
X110938360Y-94474999I0J-249999D01*
G01*
G37*
G04 #@! TD.AperFunction*
X80640200Y-96025000D03*
X85720200Y-96025000D03*
G04 #@! TA.AperFunction,ComponentPad*
G36*
G01*
X91840200Y-94474999D02*
X91840200Y-97575001D01*
G75*
G02*
X91590201Y-97825000I-249999J0D01*
G01*
X90010199Y-97825000D01*
G75*
G02*
X89760200Y-97575001I0J249999D01*
G01*
X89760200Y-94474999D01*
G75*
G02*
X90010199Y-94225000I249999J0D01*
G01*
X91590201Y-94225000D01*
G75*
G02*
X91840200Y-94474999I0J-249999D01*
G01*
G37*
G04 #@! TD.AperFunction*
X80640200Y-86445200D03*
X85720200Y-86445200D03*
G04 #@! TA.AperFunction,ComponentPad*
G36*
G01*
X91840200Y-84895199D02*
X91840200Y-87995201D01*
G75*
G02*
X91590201Y-88245200I-249999J0D01*
G01*
X90010199Y-88245200D01*
G75*
G02*
X89760200Y-87995201I0J249999D01*
G01*
X89760200Y-84895199D01*
G75*
G02*
X90010199Y-84645200I249999J0D01*
G01*
X91590201Y-84645200D01*
G75*
G02*
X91840200Y-84895199I0J-249999D01*
G01*
G37*
G04 #@! TD.AperFunction*
X99738360Y-86445200D03*
X104818360Y-86445200D03*
G04 #@! TA.AperFunction,ComponentPad*
G36*
G01*
X110938360Y-84895199D02*
X110938360Y-87995201D01*
G75*
G02*
X110688361Y-88245200I-249999J0D01*
G01*
X109108359Y-88245200D01*
G75*
G02*
X108858360Y-87995201I0J249999D01*
G01*
X108858360Y-84895199D01*
G75*
G02*
X109108359Y-84645200I249999J0D01*
G01*
X110688361Y-84645200D01*
G75*
G02*
X110938360Y-84895199I0J-249999D01*
G01*
G37*
G04 #@! TD.AperFunction*
X109898360Y-138049200D03*
X104818360Y-138049200D03*
G04 #@! TA.AperFunction,ComponentPad*
G36*
G01*
X98698360Y-139599201D02*
X98698360Y-136499199D01*
G75*
G02*
X98948359Y-136249200I249999J0D01*
G01*
X100528361Y-136249200D01*
G75*
G02*
X100778360Y-136499199I0J-249999D01*
G01*
X100778360Y-139599201D01*
G75*
G02*
X100528361Y-139849200I-249999J0D01*
G01*
X98948359Y-139849200D01*
G75*
G02*
X98698360Y-139599201I0J249999D01*
G01*
G37*
G04 #@! TD.AperFunction*
X90800200Y-138049200D03*
X85720200Y-138049200D03*
G04 #@! TA.AperFunction,ComponentPad*
G36*
G01*
X79600200Y-139599201D02*
X79600200Y-136499199D01*
G75*
G02*
X79850199Y-136249200I249999J0D01*
G01*
X81430201Y-136249200D01*
G75*
G02*
X81680200Y-136499199I0J-249999D01*
G01*
X81680200Y-139599201D01*
G75*
G02*
X81430201Y-139849200I-249999J0D01*
G01*
X79850199Y-139849200D01*
G75*
G02*
X79600200Y-139599201I0J249999D01*
G01*
G37*
G04 #@! TD.AperFunction*
G04 #@! TA.AperFunction,ComponentPad*
G36*
G01*
X149134680Y-94474999D02*
X149134680Y-97575001D01*
G75*
G02*
X148884681Y-97825000I-249999J0D01*
G01*
X147304679Y-97825000D01*
G75*
G02*
X147054680Y-97575001I0J249999D01*
G01*
X147054680Y-94474999D01*
G75*
G02*
X147304679Y-94225000I249999J0D01*
G01*
X148884681Y-94225000D01*
G75*
G02*
X149134680Y-94474999I0J-249999D01*
G01*
G37*
G04 #@! TD.AperFunction*
X143014680Y-96025000D03*
X137934680Y-96025000D03*
X118836520Y-96025000D03*
X123916520Y-96025000D03*
G04 #@! TA.AperFunction,ComponentPad*
G36*
G01*
X130036520Y-94474999D02*
X130036520Y-97575001D01*
G75*
G02*
X129786521Y-97825000I-249999J0D01*
G01*
X128206519Y-97825000D01*
G75*
G02*
X127956520Y-97575001I0J249999D01*
G01*
X127956520Y-94474999D01*
G75*
G02*
X128206519Y-94225000I249999J0D01*
G01*
X129786521Y-94225000D01*
G75*
G02*
X130036520Y-94474999I0J-249999D01*
G01*
G37*
G04 #@! TD.AperFunction*
G04 #@! TA.AperFunction,ComponentPad*
G36*
G01*
X130036520Y-84895199D02*
X130036520Y-87995201D01*
G75*
G02*
X129786521Y-88245200I-249999J0D01*
G01*
X128206519Y-88245200D01*
G75*
G02*
X127956520Y-87995201I0J249999D01*
G01*
X127956520Y-84895199D01*
G75*
G02*
X128206519Y-84645200I249999J0D01*
G01*
X129786521Y-84645200D01*
G75*
G02*
X130036520Y-84895199I0J-249999D01*
G01*
G37*
G04 #@! TD.AperFunction*
X123916520Y-86445200D03*
X118836520Y-86445200D03*
X137934680Y-86445200D03*
X143014680Y-86445200D03*
G04 #@! TA.AperFunction,ComponentPad*
G36*
G01*
X149134680Y-84895199D02*
X149134680Y-87995201D01*
G75*
G02*
X148884681Y-88245200I-249999J0D01*
G01*
X147304679Y-88245200D01*
G75*
G02*
X147054680Y-87995201I0J249999D01*
G01*
X147054680Y-84895199D01*
G75*
G02*
X147304679Y-84645200I249999J0D01*
G01*
X148884681Y-84645200D01*
G75*
G02*
X149134680Y-84895199I0J-249999D01*
G01*
G37*
G04 #@! TD.AperFunction*
G04 #@! TA.AperFunction,SMDPad,CuDef*
G36*
G01*
X190158000Y-108770500D02*
X190158000Y-108425500D01*
G75*
G02*
X190305500Y-108278000I147500J0D01*
G01*
X190600500Y-108278000D01*
G75*
G02*
X190748000Y-108425500I0J-147500D01*
G01*
X190748000Y-108770500D01*
G75*
G02*
X190600500Y-108918000I-147500J0D01*
G01*
X190305500Y-108918000D01*
G75*
G02*
X190158000Y-108770500I0J147500D01*
G01*
G37*
G04 #@! TD.AperFunction*
G04 #@! TA.AperFunction,SMDPad,CuDef*
G36*
G01*
X189188000Y-108770500D02*
X189188000Y-108425500D01*
G75*
G02*
X189335500Y-108278000I147500J0D01*
G01*
X189630500Y-108278000D01*
G75*
G02*
X189778000Y-108425500I0J-147500D01*
G01*
X189778000Y-108770500D01*
G75*
G02*
X189630500Y-108918000I-147500J0D01*
G01*
X189335500Y-108918000D01*
G75*
G02*
X189188000Y-108770500I0J147500D01*
G01*
G37*
G04 #@! TD.AperFunction*
G04 #@! TA.AperFunction,SMDPad,CuDef*
G36*
G01*
X188126000Y-110294500D02*
X188126000Y-109949500D01*
G75*
G02*
X188273500Y-109802000I147500J0D01*
G01*
X188568500Y-109802000D01*
G75*
G02*
X188716000Y-109949500I0J-147500D01*
G01*
X188716000Y-110294500D01*
G75*
G02*
X188568500Y-110442000I-147500J0D01*
G01*
X188273500Y-110442000D01*
G75*
G02*
X188126000Y-110294500I0J147500D01*
G01*
G37*
G04 #@! TD.AperFunction*
G04 #@! TA.AperFunction,SMDPad,CuDef*
G36*
G01*
X187156000Y-110294500D02*
X187156000Y-109949500D01*
G75*
G02*
X187303500Y-109802000I147500J0D01*
G01*
X187598500Y-109802000D01*
G75*
G02*
X187746000Y-109949500I0J-147500D01*
G01*
X187746000Y-110294500D01*
G75*
G02*
X187598500Y-110442000I-147500J0D01*
G01*
X187303500Y-110442000D01*
G75*
G02*
X187156000Y-110294500I0J147500D01*
G01*
G37*
G04 #@! TD.AperFunction*
G04 #@! TA.AperFunction,SMDPad,CuDef*
G36*
G01*
X193387000Y-118237000D02*
X192137000Y-118237000D01*
G75*
G02*
X191887000Y-117987000I0J250000D01*
G01*
X191887000Y-117237000D01*
G75*
G02*
X192137000Y-116987000I250000J0D01*
G01*
X193387000Y-116987000D01*
G75*
G02*
X193637000Y-117237000I0J-250000D01*
G01*
X193637000Y-117987000D01*
G75*
G02*
X193387000Y-118237000I-250000J0D01*
G01*
G37*
G04 #@! TD.AperFunction*
G04 #@! TA.AperFunction,SMDPad,CuDef*
G36*
G01*
X193387000Y-121037000D02*
X192137000Y-121037000D01*
G75*
G02*
X191887000Y-120787000I0J250000D01*
G01*
X191887000Y-120037000D01*
G75*
G02*
X192137000Y-119787000I250000J0D01*
G01*
X193387000Y-119787000D01*
G75*
G02*
X193637000Y-120037000I0J-250000D01*
G01*
X193637000Y-120787000D01*
G75*
G02*
X193387000Y-121037000I-250000J0D01*
G01*
G37*
G04 #@! TD.AperFunction*
G04 #@! TA.AperFunction,SMDPad,CuDef*
G36*
G01*
X198975000Y-118237000D02*
X197725000Y-118237000D01*
G75*
G02*
X197475000Y-117987000I0J250000D01*
G01*
X197475000Y-117237000D01*
G75*
G02*
X197725000Y-116987000I250000J0D01*
G01*
X198975000Y-116987000D01*
G75*
G02*
X199225000Y-117237000I0J-250000D01*
G01*
X199225000Y-117987000D01*
G75*
G02*
X198975000Y-118237000I-250000J0D01*
G01*
G37*
G04 #@! TD.AperFunction*
G04 #@! TA.AperFunction,SMDPad,CuDef*
G36*
G01*
X198975000Y-121037000D02*
X197725000Y-121037000D01*
G75*
G02*
X197475000Y-120787000I0J250000D01*
G01*
X197475000Y-120037000D01*
G75*
G02*
X197725000Y-119787000I250000J0D01*
G01*
X198975000Y-119787000D01*
G75*
G02*
X199225000Y-120037000I0J-250000D01*
G01*
X199225000Y-120787000D01*
G75*
G02*
X198975000Y-121037000I-250000J0D01*
G01*
G37*
G04 #@! TD.AperFunction*
G04 #@! TA.AperFunction,SMDPad,CuDef*
G36*
G01*
X171206000Y-106862000D02*
X171206000Y-105762000D01*
G75*
G02*
X171456000Y-105512000I250000J0D01*
G01*
X174456000Y-105512000D01*
G75*
G02*
X174706000Y-105762000I0J-250000D01*
G01*
X174706000Y-106862000D01*
G75*
G02*
X174456000Y-107112000I-250000J0D01*
G01*
X171456000Y-107112000D01*
G75*
G02*
X171206000Y-106862000I0J250000D01*
G01*
G37*
G04 #@! TD.AperFunction*
G04 #@! TA.AperFunction,SMDPad,CuDef*
G36*
G01*
X165606000Y-106862000D02*
X165606000Y-105762000D01*
G75*
G02*
X165856000Y-105512000I250000J0D01*
G01*
X168856000Y-105512000D01*
G75*
G02*
X169106000Y-105762000I0J-250000D01*
G01*
X169106000Y-106862000D01*
G75*
G02*
X168856000Y-107112000I-250000J0D01*
G01*
X165856000Y-107112000D01*
G75*
G02*
X165606000Y-106862000I0J250000D01*
G01*
G37*
G04 #@! TD.AperFunction*
G04 #@! TA.AperFunction,SMDPad,CuDef*
G36*
G01*
X96276000Y-106862000D02*
X96276000Y-105762000D01*
G75*
G02*
X96526000Y-105512000I250000J0D01*
G01*
X99526000Y-105512000D01*
G75*
G02*
X99776000Y-105762000I0J-250000D01*
G01*
X99776000Y-106862000D01*
G75*
G02*
X99526000Y-107112000I-250000J0D01*
G01*
X96526000Y-107112000D01*
G75*
G02*
X96276000Y-106862000I0J250000D01*
G01*
G37*
G04 #@! TD.AperFunction*
G04 #@! TA.AperFunction,SMDPad,CuDef*
G36*
G01*
X90676000Y-106862000D02*
X90676000Y-105762000D01*
G75*
G02*
X90926000Y-105512000I250000J0D01*
G01*
X93926000Y-105512000D01*
G75*
G02*
X94176000Y-105762000I0J-250000D01*
G01*
X94176000Y-106862000D01*
G75*
G02*
X93926000Y-107112000I-250000J0D01*
G01*
X90926000Y-107112000D01*
G75*
G02*
X90676000Y-106862000I0J250000D01*
G01*
G37*
G04 #@! TD.AperFunction*
G04 #@! TA.AperFunction,SMDPad,CuDef*
G36*
G01*
X134326000Y-133514000D02*
X132326000Y-133514000D01*
G75*
G02*
X132076000Y-133264000I0J250000D01*
G01*
X132076000Y-130264000D01*
G75*
G02*
X132326000Y-130014000I250000J0D01*
G01*
X134326000Y-130014000D01*
G75*
G02*
X134576000Y-130264000I0J-250000D01*
G01*
X134576000Y-133264000D01*
G75*
G02*
X134326000Y-133514000I-250000J0D01*
G01*
G37*
G04 #@! TD.AperFunction*
G04 #@! TA.AperFunction,SMDPad,CuDef*
G36*
G01*
X134326000Y-140014000D02*
X132326000Y-140014000D01*
G75*
G02*
X132076000Y-139764000I0J250000D01*
G01*
X132076000Y-136764000D01*
G75*
G02*
X132326000Y-136514000I250000J0D01*
G01*
X134326000Y-136514000D01*
G75*
G02*
X134576000Y-136764000I0J-250000D01*
G01*
X134576000Y-139764000D01*
G75*
G02*
X134326000Y-140014000I-250000J0D01*
G01*
G37*
G04 #@! TD.AperFunction*
G04 #@! TA.AperFunction,SMDPad,CuDef*
G36*
G01*
X153680000Y-106862000D02*
X153680000Y-105762000D01*
G75*
G02*
X153930000Y-105512000I250000J0D01*
G01*
X156930000Y-105512000D01*
G75*
G02*
X157180000Y-105762000I0J-250000D01*
G01*
X157180000Y-106862000D01*
G75*
G02*
X156930000Y-107112000I-250000J0D01*
G01*
X153930000Y-107112000D01*
G75*
G02*
X153680000Y-106862000I0J250000D01*
G01*
G37*
G04 #@! TD.AperFunction*
G04 #@! TA.AperFunction,SMDPad,CuDef*
G36*
G01*
X148080000Y-106862000D02*
X148080000Y-105762000D01*
G75*
G02*
X148330000Y-105512000I250000J0D01*
G01*
X151330000Y-105512000D01*
G75*
G02*
X151580000Y-105762000I0J-250000D01*
G01*
X151580000Y-106862000D01*
G75*
G02*
X151330000Y-107112000I-250000J0D01*
G01*
X148330000Y-107112000D01*
G75*
G02*
X148080000Y-106862000I0J250000D01*
G01*
G37*
G04 #@! TD.AperFunction*
D18*
X88392000Y-89662000D03*
X97536000Y-89662000D03*
X116840000Y-89662000D03*
X107188000Y-89662000D03*
X80772000Y-89662000D03*
X116840000Y-81280000D03*
X135636000Y-81280000D03*
X154940000Y-81280000D03*
X173990000Y-81280000D03*
X192762000Y-108090000D03*
X83796000Y-107328000D03*
X85066000Y-105296000D03*
X124690000Y-108852000D03*
X192762000Y-127508000D03*
X198374000Y-127508000D03*
D19*
X102362000Y-106312000D03*
X133326000Y-128270000D03*
X158750000Y-106312000D03*
X176022000Y-106312000D03*
D18*
X196850000Y-108090000D03*
X82780000Y-108344000D03*
X91162000Y-108344000D03*
X134850000Y-110122000D03*
X124690000Y-112154000D03*
X177522000Y-103518000D03*
X169140000Y-101994000D03*
X155678000Y-101994000D03*
X150090000Y-101994000D03*
X179300000Y-105296000D03*
X179324000Y-111506000D03*
X179324000Y-108712000D03*
X118086000Y-124346000D03*
X118086000Y-118758000D03*
X149328000Y-123584000D03*
X149328000Y-129680000D03*
X122150000Y-101740000D03*
X130786000Y-101740000D03*
X92940000Y-100216000D03*
X179046000Y-93358000D03*
X190476000Y-101994000D03*
X189968000Y-104788000D03*
X143994000Y-116472000D03*
X171704000Y-114300000D03*
X182880000Y-105918000D03*
X143994000Y-114617200D03*
X174752000Y-113538000D03*
X183388000Y-107188000D03*
X143994000Y-112662000D03*
X198882000Y-106426000D03*
X187452000Y-113538000D03*
X140184000Y-111392000D03*
X186690000Y-112522000D03*
X198120000Y-107188000D03*
X120626000Y-119266000D03*
X120626000Y-126632000D03*
X139422000Y-121298000D03*
X147042000Y-121298000D03*
X140692000Y-120536000D03*
X145264000Y-124600000D03*
X136882000Y-117996000D03*
X117832000Y-111392000D03*
X117832000Y-113170000D03*
X136882000Y-114440000D03*
X132310000Y-118758000D03*
X132310000Y-114694000D03*
X132310000Y-111392000D03*
X133580000Y-107328000D03*
X136882000Y-107328000D03*
X89892000Y-103010000D03*
X99798000Y-103010000D03*
X116816000Y-103010000D03*
D20*
X194286000Y-108062000D02*
X192790000Y-108062000D01*
X192790000Y-108062000D02*
X192762000Y-108090000D01*
X193234000Y-108562000D02*
X192762000Y-108090000D01*
X194286000Y-108562000D02*
X193234000Y-108562000D01*
X193290000Y-107562000D02*
X192762000Y-108090000D01*
X194286000Y-107562000D02*
X193290000Y-107562000D01*
X83526000Y-105636000D02*
X83526000Y-107058000D01*
X83526000Y-107058000D02*
X83796000Y-107328000D01*
X82526000Y-105636000D02*
X82526000Y-107074000D01*
X82780000Y-107328000D02*
X83796000Y-107328000D01*
X82526000Y-107074000D02*
X82780000Y-107328000D01*
D21*
X120753000Y-105980000D02*
X120753000Y-108471000D01*
X120753000Y-108471000D02*
X121134000Y-108852000D01*
X121134000Y-108852000D02*
X124690000Y-108852000D01*
D22*
X127103000Y-105980000D02*
X127103000Y-108217000D01*
X126468000Y-108852000D02*
X124690000Y-108852000D01*
X127103000Y-108217000D02*
X126468000Y-108852000D01*
X128373000Y-105980000D02*
X127103000Y-105980000D01*
X129643000Y-105980000D02*
X128373000Y-105980000D01*
D21*
X120753000Y-105980000D02*
X119786000Y-105980000D01*
X118836520Y-105030520D02*
X118836520Y-96025000D01*
X119786000Y-105980000D02*
X118836520Y-105030520D01*
D23*
X173990000Y-81280000D02*
X154940000Y-81280000D01*
X135636000Y-81280000D02*
X116840000Y-81280000D01*
X116840000Y-89662000D02*
X107188000Y-89662000D01*
X107188000Y-89662000D02*
X97536000Y-89662000D01*
X97536000Y-89662000D02*
X88392000Y-89662000D01*
X88392000Y-89662000D02*
X80772000Y-89662000D01*
X176135000Y-86449200D02*
X176131000Y-86445200D01*
X176135000Y-96025000D02*
X176135000Y-86449200D01*
X154940000Y-81280000D02*
X135636000Y-81280000D01*
D21*
X192762000Y-125879000D02*
X192762000Y-127508000D01*
X198350000Y-125879000D02*
X198350000Y-127484000D01*
X198350000Y-127484000D02*
X198374000Y-127508000D01*
D23*
X80772000Y-89662000D02*
X76962000Y-89662000D01*
X76962000Y-89662000D02*
X75946000Y-88646000D01*
X75946000Y-88646000D02*
X70612000Y-88646000D01*
X69826000Y-89432000D02*
X69826000Y-91580000D01*
X70612000Y-88646000D02*
X69826000Y-89432000D01*
D24*
X133326000Y-131764000D02*
X133326000Y-128270000D01*
X98026000Y-106312000D02*
X102362000Y-106312000D01*
X155430000Y-106312000D02*
X158750000Y-106312000D01*
X172956000Y-106312000D02*
X176022000Y-106312000D01*
D20*
X194286000Y-108562000D02*
X196378000Y-108562000D01*
X196822000Y-108062000D02*
X196850000Y-108090000D01*
X196378000Y-108562000D02*
X196850000Y-108090000D01*
X194286000Y-107562000D02*
X196322000Y-107562000D01*
X196322000Y-107562000D02*
X196850000Y-108090000D01*
X194286000Y-108062000D02*
X196822000Y-108062000D01*
X187451000Y-110122000D02*
X187451000Y-110399000D01*
X187451000Y-110399000D02*
X190222000Y-113170000D01*
X190222000Y-113170000D02*
X196572000Y-113170000D01*
X198350000Y-114948000D02*
X198350000Y-117612000D01*
X196572000Y-113170000D02*
X198350000Y-114948000D01*
D24*
X167192840Y-106148840D02*
X167356000Y-106312000D01*
D22*
X122150000Y-130197000D02*
X122150000Y-131204000D01*
X122150000Y-124101000D02*
X123175000Y-124101000D01*
X123175000Y-124101000D02*
X124182000Y-125108000D01*
X124182000Y-125108000D02*
X124182000Y-130950000D01*
X123928000Y-131204000D02*
X122150000Y-131204000D01*
X124182000Y-130950000D02*
X123928000Y-131204000D01*
D24*
X133326000Y-138264000D02*
X138458000Y-138264000D01*
X138458000Y-138264000D02*
X142724000Y-133998000D01*
D21*
X145264000Y-128419000D02*
X142969000Y-128419000D01*
X142969000Y-128419000D02*
X142724000Y-128664000D01*
D24*
X142724000Y-133998000D02*
X142724000Y-128664000D01*
D21*
X145264000Y-122323000D02*
X142733000Y-122323000D01*
D24*
X142724000Y-128664000D02*
X142724000Y-122314000D01*
D21*
X142733000Y-122323000D02*
X142724000Y-122314000D01*
D20*
X82526000Y-110036000D02*
X82526000Y-108598000D01*
X82526000Y-108598000D02*
X82780000Y-108344000D01*
X92420000Y-108344000D02*
X92426000Y-108338000D01*
X91162000Y-108344000D02*
X92420000Y-108344000D01*
D25*
X187451000Y-110122000D02*
X185904000Y-110122000D01*
D24*
X92426000Y-109354000D02*
X92426000Y-106312000D01*
X93194000Y-110122000D02*
X92426000Y-109354000D01*
X149830000Y-109862000D02*
X150090000Y-110122000D01*
X149830000Y-106312000D02*
X149830000Y-109862000D01*
X167356000Y-109862000D02*
X167616000Y-110122000D01*
X185904000Y-110122000D02*
X167616000Y-110122000D01*
X167356000Y-106312000D02*
X167356000Y-109862000D01*
X167616000Y-110122000D02*
X150090000Y-110122000D01*
X167356000Y-96188160D02*
X167192840Y-96025000D01*
X167356000Y-106312000D02*
X167356000Y-96188160D01*
X149830000Y-106312000D02*
X149830000Y-104020000D01*
X148094680Y-102284680D02*
X148094680Y-96025000D01*
X149830000Y-104020000D02*
X148094680Y-102284680D01*
X92426000Y-106312000D02*
X92426000Y-103258000D01*
X90800200Y-101632200D02*
X90800200Y-96025000D01*
X92426000Y-103258000D02*
X90800200Y-101632200D01*
D21*
X129643000Y-115280000D02*
X129643000Y-113043000D01*
X129643000Y-113043000D02*
X128754000Y-112154000D01*
X128754000Y-112154000D02*
X124690000Y-112154000D01*
X124690000Y-112154000D02*
X122912000Y-112154000D01*
X122150000Y-111392000D02*
X122150000Y-110122000D01*
X122912000Y-112154000D02*
X122150000Y-111392000D01*
D24*
X122150000Y-110122000D02*
X93194000Y-110122000D01*
X150090000Y-110122000D02*
X142978000Y-110122000D01*
X138660000Y-110122000D02*
X138660000Y-118504000D01*
X138660000Y-110122000D02*
X122150000Y-110122000D01*
X142978000Y-110122000D02*
X138660000Y-110122000D01*
X138660000Y-118504000D02*
X140692000Y-118504000D01*
X142733000Y-120545000D02*
X142733000Y-122323000D01*
X140692000Y-118504000D02*
X142733000Y-120545000D01*
D21*
X116070000Y-121044000D02*
X116070000Y-127140000D01*
X151328000Y-127124000D02*
X151344000Y-127140000D01*
X151328000Y-121110000D02*
X151328000Y-127124000D01*
X133096000Y-138494000D02*
X133326000Y-138264000D01*
X116070000Y-127140000D02*
X116070000Y-133088000D01*
X116070000Y-133088000D02*
X124206000Y-141224000D01*
X133326000Y-140184000D02*
X133326000Y-138264000D01*
X134366000Y-141224000D02*
X133326000Y-140184000D01*
X140716000Y-141224000D02*
X134366000Y-141224000D01*
X151344000Y-127140000D02*
X151344000Y-130596000D01*
X151344000Y-130596000D02*
X140716000Y-141224000D01*
X124206000Y-141224000D02*
X131826000Y-141224000D01*
X133326000Y-139724000D02*
X133326000Y-138264000D01*
X131826000Y-141224000D02*
X133326000Y-139724000D01*
D22*
X123928000Y-131204000D02*
X123928000Y-133326000D01*
X128866000Y-138264000D02*
X133326000Y-138264000D01*
X123928000Y-133326000D02*
X128866000Y-138264000D01*
D25*
X198350000Y-120412000D02*
X198350000Y-123829000D01*
D20*
X189968000Y-114186000D02*
X191492000Y-114186000D01*
X192762000Y-115456000D02*
X192762000Y-117612000D01*
X191492000Y-114186000D02*
X192762000Y-115456000D01*
D26*
X177522000Y-103518000D02*
X175998000Y-101994000D01*
X175998000Y-101994000D02*
X169140000Y-101994000D01*
X155678000Y-101994000D02*
X150090000Y-101994000D01*
D20*
X189968000Y-114186000D02*
X189714000Y-114186000D01*
X189714000Y-114186000D02*
X187174000Y-111646000D01*
X187174000Y-111646000D02*
X184126000Y-111646000D01*
X184126000Y-111646000D02*
X179464000Y-111646000D01*
X179464000Y-111646000D02*
X179324000Y-111506000D01*
X179324000Y-105320000D02*
X179300000Y-105296000D01*
D21*
X179438000Y-108598000D02*
X179324000Y-108712000D01*
X189483000Y-108598000D02*
X179438000Y-108598000D01*
X179300000Y-108688000D02*
X179324000Y-108712000D01*
X179300000Y-105296000D02*
X179300000Y-108688000D01*
D25*
X192762000Y-120412000D02*
X192762000Y-123829000D01*
D23*
X118070000Y-126190000D02*
X118070000Y-124362000D01*
X118070000Y-124362000D02*
X118086000Y-124346000D01*
X118070000Y-120094000D02*
X118070000Y-118774000D01*
X118070000Y-118774000D02*
X118086000Y-118758000D01*
D26*
X149328000Y-122060000D02*
X149328000Y-123584000D01*
X149344000Y-128090000D02*
X149344000Y-128140000D01*
X149344000Y-128090000D02*
X149344000Y-129664000D01*
X149344000Y-129664000D02*
X149328000Y-129680000D01*
D25*
X188421000Y-110122000D02*
X189460000Y-110122000D01*
D23*
X189460000Y-110122000D02*
X192762000Y-110122000D01*
D20*
X194286000Y-109062000D02*
X193060000Y-109062000D01*
X192762000Y-109360000D02*
X192762000Y-110122000D01*
X193060000Y-109062000D02*
X192762000Y-109360000D01*
X193322000Y-109562000D02*
X192762000Y-110122000D01*
X194286000Y-109562000D02*
X193322000Y-109562000D01*
X192822000Y-110062000D02*
X192762000Y-110122000D01*
X194286000Y-110062000D02*
X192822000Y-110062000D01*
X194286000Y-107062000D02*
X192012000Y-107062000D01*
D21*
X192012000Y-107062000D02*
X191746000Y-107328000D01*
X191746000Y-107328000D02*
X191746000Y-108344000D01*
X191492000Y-108598000D02*
X190453000Y-108598000D01*
X191746000Y-108344000D02*
X191492000Y-108598000D01*
D25*
X125833000Y-105980000D02*
X125833000Y-102883000D01*
X125833000Y-102883000D02*
X128500000Y-100216000D01*
X128500000Y-100216000D02*
X131040000Y-100216000D01*
X131040000Y-100216000D02*
X134850000Y-96406000D01*
X134850000Y-94609880D02*
X143014680Y-86445200D01*
X134850000Y-96406000D02*
X134850000Y-94609880D01*
X124563000Y-105980000D02*
X124563000Y-101613000D01*
X124563000Y-101613000D02*
X125960000Y-100216000D01*
X125960000Y-88488680D02*
X123916520Y-86445200D01*
X125960000Y-100216000D02*
X125960000Y-88488680D01*
X123293000Y-105980000D02*
X123293000Y-101613000D01*
X123916520Y-100989480D02*
X123916520Y-96025000D01*
X123293000Y-101613000D02*
X123916520Y-100989480D01*
X122023000Y-105980000D02*
X122023000Y-101867000D01*
X122023000Y-101867000D02*
X122150000Y-101740000D01*
X137299680Y-101740000D02*
X143014680Y-96025000D01*
X130786000Y-101740000D02*
X137299680Y-101740000D01*
D27*
X91720200Y-137129200D02*
X90800200Y-138049200D01*
X91720200Y-129275000D02*
X91720200Y-137129200D01*
X85720200Y-115075000D02*
X85720200Y-138049200D01*
X79670200Y-137079200D02*
X80640200Y-138049200D01*
X79670200Y-129225000D02*
X79670200Y-137079200D01*
X110818360Y-137129200D02*
X109898360Y-138049200D01*
X110818360Y-129275000D02*
X110818360Y-137129200D01*
X104818360Y-115075000D02*
X104818360Y-138049200D01*
X98768360Y-137079200D02*
X99738360Y-138049200D01*
X98768360Y-129225000D02*
X98768360Y-137079200D01*
X168112840Y-137067200D02*
X167192840Y-137987200D01*
X168112840Y-130037000D02*
X168112840Y-137067200D01*
X162112840Y-115837000D02*
X162112840Y-137987200D01*
X156062840Y-137017200D02*
X157032840Y-137987200D01*
X156062840Y-129987000D02*
X156062840Y-137017200D01*
X187215000Y-137067200D02*
X186295000Y-137987200D01*
X187215000Y-130037000D02*
X187215000Y-137067200D01*
X181215000Y-115837000D02*
X181215000Y-137987200D01*
X175165000Y-137017200D02*
X176135000Y-137987200D01*
X175165000Y-129987000D02*
X175165000Y-137017200D01*
D25*
X104818360Y-96025000D02*
X104818360Y-98751640D01*
X104818360Y-98751640D02*
X103354000Y-100216000D01*
X103354000Y-100216000D02*
X92940000Y-100216000D01*
D21*
X179046000Y-88610200D02*
X181211000Y-86445200D01*
X179046000Y-93358000D02*
X179046000Y-88610200D01*
D20*
X191544000Y-103062000D02*
X194286000Y-103062000D01*
X190476000Y-101994000D02*
X191544000Y-103062000D01*
D21*
X162112840Y-86445200D02*
X162112840Y-89632840D01*
X162112840Y-89632840D02*
X164314000Y-91834000D01*
X164314000Y-91834000D02*
X170664000Y-91834000D01*
X170664000Y-91834000D02*
X173712000Y-94882000D01*
X173712000Y-94882000D02*
X173712000Y-96546691D01*
X173712000Y-96546691D02*
X173712000Y-98184000D01*
X173712000Y-98184000D02*
X175236000Y-99708000D01*
X175236000Y-99708000D02*
X184888000Y-99708000D01*
X184888000Y-99708000D02*
X185142000Y-99708000D01*
X184888000Y-99708000D02*
X185650000Y-99708000D01*
X185650000Y-99708000D02*
X188698000Y-102756000D01*
X188698000Y-102756000D02*
X188904390Y-102962390D01*
X188904390Y-102962390D02*
X189460000Y-102962390D01*
D20*
X189460000Y-102962390D02*
X190428390Y-102962390D01*
X191028000Y-103562000D02*
X194286000Y-103562000D01*
X190428390Y-102962390D02*
X191028000Y-103562000D01*
D21*
X162112840Y-96025000D02*
X162112840Y-94543160D01*
X162112840Y-94543160D02*
X163806000Y-92850000D01*
X163806000Y-92850000D02*
X170410000Y-92850000D01*
X170410000Y-92850000D02*
X172696000Y-95136000D01*
X172696000Y-95136000D02*
X172696000Y-98692000D01*
X172696000Y-98692000D02*
X174728000Y-100724000D01*
X174728000Y-100724000D02*
X182348000Y-100724000D01*
X182348000Y-100724000D02*
X184634000Y-100724000D01*
X184634000Y-100724000D02*
X187682000Y-103772000D01*
X187682000Y-103772000D02*
X189714000Y-103772000D01*
D20*
X189714000Y-103772000D02*
X190222000Y-103772000D01*
X190512000Y-104062000D02*
X194286000Y-104062000D01*
X190222000Y-103772000D02*
X190512000Y-104062000D01*
X189968000Y-104788000D02*
X191492000Y-104788000D01*
X191718000Y-104562000D02*
X194286000Y-104562000D01*
X191492000Y-104788000D02*
X191718000Y-104562000D01*
X143994000Y-116472000D02*
X144502000Y-115964000D01*
X144502000Y-115964000D02*
X151868000Y-115964000D01*
X151868000Y-115964000D02*
X154154000Y-113678000D01*
X154154000Y-113678000D02*
X156948000Y-113678000D01*
X194286000Y-105062000D02*
X191864000Y-105062000D01*
X191864000Y-105062000D02*
X191008000Y-105918000D01*
X191008000Y-105918000D02*
X182880000Y-105918000D01*
X156948000Y-113678000D02*
X171082000Y-113678000D01*
X171082000Y-113678000D02*
X171704000Y-114300000D01*
X143994000Y-114617200D02*
X144324800Y-114948000D01*
X144324800Y-114948000D02*
X151868000Y-114948000D01*
X151868000Y-114948000D02*
X153646000Y-113170000D01*
X153646000Y-113170000D02*
X156694000Y-113170000D01*
X156694000Y-113170000D02*
X174384000Y-113170000D01*
X174384000Y-113170000D02*
X174752000Y-113538000D01*
X184145809Y-106430191D02*
X191257809Y-106430191D01*
X183388000Y-107188000D02*
X184145809Y-106430191D01*
X192126000Y-105562000D02*
X194286000Y-105562000D01*
X191257809Y-106430191D02*
X192126000Y-105562000D01*
X194286000Y-106062000D02*
X198518000Y-106062000D01*
X198518000Y-106062000D02*
X198882000Y-106426000D01*
X144502000Y-112154000D02*
X143994000Y-112662000D01*
X149074000Y-112154000D02*
X144502000Y-112154000D01*
X149582000Y-112662000D02*
X149074000Y-112154000D01*
X185420000Y-113538000D02*
X184912000Y-113030000D01*
X177178000Y-112662000D02*
X149582000Y-112662000D01*
X187452000Y-113538000D02*
X185420000Y-113538000D01*
X177546000Y-113030000D02*
X177178000Y-112662000D01*
X184912000Y-113030000D02*
X177546000Y-113030000D01*
X140184000Y-111392000D02*
X140692000Y-111392000D01*
X140692000Y-111392000D02*
X140946000Y-111646000D01*
X149208067Y-111646000D02*
X149528010Y-111965943D01*
X140946000Y-111646000D02*
X149208067Y-111646000D01*
X149528010Y-111965943D02*
X149770056Y-112207990D01*
X149770056Y-112207990D02*
X156186000Y-112207990D01*
X156186000Y-112207990D02*
X178755990Y-112207990D01*
X178755990Y-112207990D02*
X179070000Y-112522000D01*
X179070000Y-112522000D02*
X186690000Y-112522000D01*
X197494000Y-106562000D02*
X194286000Y-106562000D01*
X198120000Y-107188000D02*
X197494000Y-106562000D01*
X82026000Y-105636000D02*
X82026000Y-104288000D01*
X82026000Y-104288000D02*
X80494000Y-102756000D01*
X80494000Y-102756000D02*
X77446000Y-102756000D01*
X77446000Y-102756000D02*
X75922000Y-101232000D01*
X75922000Y-96406000D02*
X73636000Y-94120000D01*
X75922000Y-101232000D02*
X75922000Y-96406000D01*
X81526000Y-105636000D02*
X79900000Y-105636000D01*
X79068778Y-106467222D02*
X73636000Y-106467222D01*
X79900000Y-105636000D02*
X79068778Y-106467222D01*
X81526000Y-110036000D02*
X79056000Y-110036000D01*
X79056000Y-110036000D02*
X76430000Y-112662000D01*
X76430000Y-116020444D02*
X73636000Y-118814444D01*
X76430000Y-112662000D02*
X76430000Y-116020444D01*
X82026000Y-110829528D02*
X82018000Y-110837528D01*
X82026000Y-110036000D02*
X82026000Y-110829528D01*
X82018000Y-110837528D02*
X82018000Y-111646000D01*
X82018000Y-111646000D02*
X81256000Y-112408000D01*
X78208000Y-112408000D02*
X76884010Y-113731990D01*
X81256000Y-112408000D02*
X78208000Y-112408000D01*
X76884010Y-113731990D02*
X76884010Y-126939990D01*
X76884010Y-126939990D02*
X75668000Y-128156000D01*
X75668000Y-129129666D02*
X73636000Y-131161666D01*
X75668000Y-128156000D02*
X75668000Y-129129666D01*
D25*
X122093000Y-128090000D02*
X122150000Y-128147000D01*
X118070000Y-128090000D02*
X122093000Y-128090000D01*
X120753000Y-115280000D02*
X120753000Y-119139000D01*
X120753000Y-119139000D02*
X120626000Y-119266000D01*
X120635000Y-126632000D02*
X122150000Y-128147000D01*
X120626000Y-126632000D02*
X120635000Y-126632000D01*
D22*
X145377000Y-120160000D02*
X145264000Y-120273000D01*
X123293000Y-115280000D02*
X123293000Y-118885000D01*
X123293000Y-118885000D02*
X125706000Y-121298000D01*
X125706000Y-121298000D02*
X139422000Y-121298000D01*
X147042000Y-121298000D02*
X147042000Y-120282000D01*
X147042000Y-120282000D02*
X147164000Y-120160000D01*
X149328000Y-120160000D02*
X147164000Y-120160000D01*
X147164000Y-120160000D02*
X145377000Y-120160000D01*
D25*
X122093000Y-121994000D02*
X122150000Y-122051000D01*
X118070000Y-121994000D02*
X122093000Y-121994000D01*
X122023000Y-115280000D02*
X122023000Y-119647000D01*
X122150000Y-119774000D02*
X122150000Y-122051000D01*
X122023000Y-119647000D02*
X122150000Y-119774000D01*
D22*
X145443000Y-126190000D02*
X145264000Y-126369000D01*
X149344000Y-126190000D02*
X145443000Y-126190000D01*
X124563000Y-115280000D02*
X124563000Y-119139000D01*
X124563000Y-119139000D02*
X125960000Y-120536000D01*
X125960000Y-120536000D02*
X139422000Y-120536000D01*
X139422000Y-120536000D02*
X140692000Y-120536000D01*
X145264000Y-124600000D02*
X145264000Y-126369000D01*
D20*
X127103000Y-115280000D02*
X127103000Y-116345000D01*
X127103000Y-116345000D02*
X128754000Y-117996000D01*
X128754000Y-117996000D02*
X136882000Y-117996000D01*
X83526000Y-110036000D02*
X83526000Y-111122000D01*
X83526000Y-111122000D02*
X84050000Y-111646000D01*
X84050000Y-111646000D02*
X109196000Y-111646000D01*
X109196000Y-111646000D02*
X117324000Y-111646000D01*
X117324000Y-111646000D02*
X117578000Y-111646000D01*
X117578000Y-111646000D02*
X117832000Y-111392000D01*
X117832000Y-113170000D02*
X121134000Y-113170000D01*
X121134000Y-113170000D02*
X121388000Y-113424000D01*
X127103000Y-114255000D02*
X127103000Y-115280000D01*
X126272000Y-113424000D02*
X127103000Y-114255000D01*
X121388000Y-113424000D02*
X126272000Y-113424000D01*
X128373000Y-115280000D02*
X128373000Y-116345000D01*
X128373000Y-116345000D02*
X129262000Y-117234000D01*
X129262000Y-117234000D02*
X131040000Y-117234000D01*
X131040000Y-117234000D02*
X133834000Y-114440000D01*
X133834000Y-114440000D02*
X136882000Y-114440000D01*
X128373000Y-114255000D02*
X128373000Y-115280000D01*
X127034000Y-112916000D02*
X128373000Y-114255000D01*
X83026000Y-110036000D02*
X83026000Y-111384000D01*
X120880000Y-112154000D02*
X121642000Y-112916000D01*
X83026000Y-111384000D02*
X83796000Y-112154000D01*
X121642000Y-112916000D02*
X127034000Y-112916000D01*
X83796000Y-112154000D02*
X120880000Y-112154000D01*
X125833000Y-115280000D02*
X125833000Y-116853000D01*
X125833000Y-116853000D02*
X127738000Y-118758000D01*
X127738000Y-118758000D02*
X132310000Y-118758000D01*
X132310000Y-114694000D02*
X132310000Y-111392000D01*
X133580000Y-107328000D02*
X136882000Y-107328000D01*
X83026000Y-104842472D02*
X83034000Y-104834472D01*
X83026000Y-105636000D02*
X83026000Y-104842472D01*
X83034000Y-104834472D02*
X83034000Y-103772000D01*
X83034000Y-103772000D02*
X83796000Y-103010000D01*
X83796000Y-103010000D02*
X89892000Y-103010000D01*
X99798000Y-103010000D02*
X116816000Y-103010000D01*
M02*
